#N canvas 0 55 1920 1002 10;
#X obj 602 628 *~;
#X obj 693 680 *~ 0;
#X obj 563 600 osc~;
#X obj 479 310 inlet;
#X msg 612 564 0.25;
#X obj 545 507 f;
#X obj 479 334 bng 15 250 50 0 empty empty empty 0 -6 0 8 -262144 -1
-1;
#X obj 623 657 lop~;
#X msg 784 555 0;
#X msg 743 550 1;
#X obj 834 549 f;
#X obj 773 514 del 3;
#X obj 780 534 t b b;
#X obj 657 529 f;
#X obj 596 494 del 3;
#X obj 603 514 t b b;
#X obj 605 537 f;
#X obj 691 705 outlet~;
#X obj 735 590 line~;
#X obj 563 562 line~;
#X text 473 293 Trigger;
#X text 574 388 Start Frequency;
#X text 624 416 End Frequency;
#X text 688 380 Frequency Decay;
#X text 747 397 Amplitude Decay;
#X text 802 413 LPF cutoff;
#X text 854 409 Volume (0..1);
#X msg 873 450 1;
#X msg 813 446 600;
#X msg 711 413 160;
#X obj 9 3;
#X obj 752 172 t b b b b b f f f f f f;
#X msg 633 459 50;
#X msg 589 463 100;
#X msg 760 425 100;
#X connect 0 0 7 0;
#X connect 1 0 17 0;
#X connect 2 0 0 0;
#X connect 3 0 6 0;
#X connect 4 0 2 1;
#X connect 5 0 19 0;
#X connect 6 0 31 0;
#X connect 7 0 1 0;
#X connect 8 0 18 0;
#X connect 9 0 18 0;
#X connect 10 0 18 1;
#X connect 11 0 12 0;
#X connect 12 0 8 0;
#X connect 12 1 10 0;
#X connect 13 0 19 1;
#X connect 14 0 15 0;
#X connect 15 0 16 0;
#X connect 15 1 13 0;
#X connect 16 0 19 0;
#X connect 18 0 0 1;
#X connect 19 0 2 0;
#X connect 27 0 1 1;
#X connect 28 0 7 1;
#X connect 29 0 13 1;
#X connect 31 0 11 0;
#X connect 31 1 5 0;
#X connect 31 2 4 0;
#X connect 31 3 14 0;
#X connect 31 4 9 0;
#X connect 31 5 33 0;
#X connect 31 6 32 0;
#X connect 31 7 29 0;
#X connect 31 8 34 0;
#X connect 31 9 28 0;
#X connect 31 10 27 0;
#X connect 32 0 16 1;
#X connect 33 0 5 1;
#X connect 34 0 10 1;
