#N canvas 1294 298 626 692 10;
#X obj 229 127 *~;
#X obj 190 99 osc~;
#X obj 106 -191 inlet;
#X msg 239 63 0.25;
#X obj 172 12 f;
#X obj 106 -167 bng 15 250 50 0 empty empty empty 0 -6 0 8 -262144
-1 -1;
#X obj 250 156 lop~;
#X msg 411 54 0;
#X msg 370 49 1;
#X obj 461 48 f;
#X obj 400 13 del 3;
#X obj 407 33 t b b;
#X obj 284 28 f;
#X obj 223 -7 del 3;
#X obj 230 13 t b b;
#X obj 232 36 f;
#X obj 318 204 outlet~;
#X obj 362 89 line~;
#X obj 190 61 line~;
#X text 100 -208 Trigger;
#X text 201 -113 Start Frequency;
#X text 251 -85 End Frequency;
#X text 315 -121 Frequency Decay;
#X text 374 -104 Amplitude Decay;
#X text 429 -88 LPF cutoff;
#X text 481 -92 Volume (0..1);
#X msg 500 -51 1;
#X msg 440 -55 600;
#X msg 338 -88 160;
#X obj 379 -329 t b b b b b f f f f f f;
#X msg 387 -76 200;
#X obj 182 -37 inlet;
#X obj 320 179 *~;
#X floatatom 104 6 5 0 0 0 - - -, f 5;
#X obj 89 44 mtof;
#X floatatom 94 82 5 0 0 0 - - -, f 5;
#X obj 110 157 + 100;
#X connect 0 0 6 0;
#X connect 1 0 0 0;
#X connect 2 0 5 0;
#X connect 3 0 1 1;
#X connect 4 0 18 0;
#X connect 5 0 29 0;
#X connect 6 0 32 0;
#X connect 7 0 17 0;
#X connect 8 0 17 0;
#X connect 9 0 17 1;
#X connect 10 0 11 0;
#X connect 11 0 7 0;
#X connect 11 1 9 0;
#X connect 12 0 18 1;
#X connect 13 0 14 0;
#X connect 14 0 15 0;
#X connect 14 1 12 0;
#X connect 15 0 18 0;
#X connect 17 0 0 1;
#X connect 18 0 1 0;
#X connect 26 0 32 1;
#X connect 27 0 6 1;
#X connect 28 0 12 1;
#X connect 29 0 10 0;
#X connect 29 1 4 0;
#X connect 29 2 3 0;
#X connect 29 3 13 0;
#X connect 29 4 8 0;
#X connect 29 7 28 0;
#X connect 29 8 30 0;
#X connect 29 9 27 0;
#X connect 29 10 26 0;
#X connect 30 0 9 1;
#X connect 31 0 33 0;
#X connect 32 0 16 0;
#X connect 33 0 34 0;
#X connect 34 0 35 0;
#X connect 34 0 36 0;
#X connect 36 0 4 1;
#X connect 36 0 15 1;
