#N canvas 1140 452 599 438 10;
#X obj 100 169 shell;
#X obj 127 192 print ScriptExec;
#X obj 98 89 bng 15 250 50 0 empty empty empty 17 7 0 10 -262144 -1
-1;
#X obj 40 344 outlet;
#X obj 29 10 inlet;
#X msg 100 126 sh /home/lxu/Documents/M1S1/Project1/shScript/GetRAM_Ubuntu.sh
;
#X obj 100 67 metro 500;
#X obj 34 263 route UsedRAM MaxRAM;
#X obj 111 346 outlet;
#X connect 0 0 7 0;
#X connect 0 1 1 0;
#X connect 2 0 5 0;
#X connect 4 0 6 0;
#X connect 5 0 0 0;
#X connect 6 0 2 0;
#X connect 7 0 3 0;
#X connect 7 1 8 0;
