#N canvas 21 619 599 438 10;
#X obj 100 169 shell;
#X obj 127 192 print ScriptExec;
#X obj 100 89 bng 15 250 50 0 empty empty empty 17 7 0 10 -262144 -1
-1;
#X obj 100 243 outlet;
#X obj 29 11 inlet;
#X msg 100 126 sh /home/lxu/Documents/M1S1/Project1/shScript/GetCPU_Ubuntu.sh
;
#X obj 100 67 metro 600;
#X connect 0 0 3 0;
#X connect 0 1 1 0;
#X connect 2 0 5 0;
#X connect 4 0 6 0;
#X connect 5 0 0 0;
#X connect 6 0 2 0;
