#N canvas 345 271 599 438 10;
#X obj 102 180 shell;
#X obj 135 220 print ScriptExec;
#X obj 98 89 bng 15 250 50 0 empty empty empty 17 7 0 10 -262144 -1
-1;
#X obj 40 344 outlet;
#X obj 29 10 inlet;
#X obj 100 67 metro 500;
#X msg 180 41 0;
#X msg 100 126 sh /home/lxu/Documents/M1S1/Project1/shScript/GetStorageUtilisation_Ubuntu.sh
;
#X connect 0 0 3 0;
#X connect 0 1 1 0;
#X connect 2 0 7 0;
#X connect 4 0 5 0;
#X connect 5 0 2 0;
#X connect 6 0 5 0;
#X connect 7 0 0 0;
