#N canvas 528 116 824 630 10;
#X obj 54 90 notein;
#X obj 54 166 pack f f f;
#X obj 54 202 route 1 2 3 4 5 6;
#X obj 53 437 dac~;
#N canvas 528 376 450 300 osc~synth 1;
#X obj 68 38 inlet;
#X obj 68 92 mtof;
#X obj 68 63 unpack;
#X obj 68 125 osc~;
#X obj 115 94 / 127;
#X obj 68 236 outlet~;
#X text 154 107 here would be an adsr envelope;
#X obj 68 198 *~ 0.2;
#X text 123 199 reduce the output level to prevent distortion;
#X obj 115 140 line~;
#X obj 68 161 *~;
#X msg 115 116 \$1 5;
#X connect 0 0 2 0;
#X connect 1 0 3 0;
#X connect 2 0 1 0;
#X connect 2 1 4 0;
#X connect 3 0 10 0;
#X connect 4 0 11 0;
#X connect 7 0 5 0;
#X connect 9 0 10 1;
#X connect 10 0 7 0;
#X connect 11 0 9 0;
#X restore 54 231 pd osc~synth;
#X msg 53 53 \; pd dsp 1;
#X obj 53 26 loadbang;
#X obj 54 285 +~;
#X obj 54 312 +~;
#X obj 53 338 +~;
#X obj 53 365 +~;
#X obj 53 392 +~;
#X obj 55 132 poly 6 1;
#N canvas 709 217 450 300 osc~synth 0;
#X obj 68 38 inlet;
#X obj 68 92 mtof;
#X obj 68 63 unpack;
#X obj 68 125 osc~;
#X obj 115 94 / 127;
#X obj 68 236 outlet~;
#X text 154 107 here would be an adsr envelope;
#X obj 68 198 *~ 0.2;
#X text 123 199 reduce the output level to prevent distortion;
#X obj 115 140 line~;
#X obj 68 161 *~;
#X msg 115 116 \$1 5;
#X connect 0 0 2 0;
#X connect 1 0 3 0;
#X connect 2 0 1 0;
#X connect 2 1 4 0;
#X connect 3 0 10 0;
#X connect 4 0 11 0;
#X connect 7 0 5 0;
#X connect 9 0 10 1;
#X connect 10 0 7 0;
#X connect 11 0 9 0;
#X restore 68 254 pd osc~synth;
#N canvas 709 217 450 300 osc~synth 0;
#X obj 68 38 inlet;
#X obj 68 92 mtof;
#X obj 68 63 unpack;
#X obj 68 125 osc~;
#X obj 115 94 / 127;
#X obj 68 236 outlet~;
#X text 154 107 here would be an adsr envelope;
#X obj 68 198 *~ 0.2;
#X text 123 199 reduce the output level to prevent distortion;
#X obj 115 140 line~;
#X obj 68 161 *~;
#X msg 115 116 \$1 5;
#X connect 0 0 2 0;
#X connect 1 0 3 0;
#X connect 2 0 1 0;
#X connect 2 1 4 0;
#X connect 3 0 10 0;
#X connect 4 0 11 0;
#X connect 7 0 5 0;
#X connect 9 0 10 1;
#X connect 10 0 7 0;
#X connect 11 0 9 0;
#X restore 87 278 pd osc~synth;
#N canvas 709 217 450 300 osc~synth 0;
#X obj 68 38 inlet;
#X obj 68 92 mtof;
#X obj 68 63 unpack;
#X obj 68 125 osc~;
#X obj 115 94 / 127;
#X obj 68 236 outlet~;
#X text 154 107 here would be an adsr envelope;
#X obj 68 198 *~ 0.2;
#X text 123 199 reduce the output level to prevent distortion;
#X obj 115 140 line~;
#X obj 68 161 *~;
#X msg 115 116 \$1 5;
#X connect 0 0 2 0;
#X connect 1 0 3 0;
#X connect 2 0 1 0;
#X connect 2 1 4 0;
#X connect 3 0 10 0;
#X connect 4 0 11 0;
#X connect 7 0 5 0;
#X connect 9 0 10 1;
#X connect 10 0 7 0;
#X connect 11 0 9 0;
#X restore 103 302 pd osc~synth;
#N canvas 709 217 450 300 osc~synth 0;
#X obj 68 38 inlet;
#X obj 68 92 mtof;
#X obj 68 63 unpack;
#X obj 68 125 osc~;
#X obj 115 94 / 127;
#X obj 68 236 outlet~;
#X text 154 107 here would be an adsr envelope;
#X obj 68 198 *~ 0.2;
#X text 123 199 reduce the output level to prevent distortion;
#X obj 115 140 line~;
#X obj 68 161 *~;
#X msg 115 116 \$1 5;
#X connect 0 0 2 0;
#X connect 1 0 3 0;
#X connect 2 0 1 0;
#X connect 2 1 4 0;
#X connect 3 0 10 0;
#X connect 4 0 11 0;
#X connect 7 0 5 0;
#X connect 9 0 10 1;
#X connect 10 0 7 0;
#X connect 11 0 9 0;
#X restore 117 325 pd osc~synth;
#N canvas 709 217 450 300 osc~synth 0;
#X obj 68 38 inlet;
#X obj 68 92 mtof;
#X obj 68 63 unpack;
#X obj 68 125 osc~;
#X obj 115 94 / 127;
#X obj 68 236 outlet~;
#X text 154 107 here would be an adsr envelope;
#X obj 68 198 *~ 0.2;
#X text 123 199 reduce the output level to prevent distortion;
#X obj 115 140 line~;
#X obj 68 161 *~;
#X msg 115 116 \$1 5;
#X connect 0 0 2 0;
#X connect 1 0 3 0;
#X connect 2 0 1 0;
#X connect 2 1 4 0;
#X connect 3 0 10 0;
#X connect 4 0 11 0;
#X connect 7 0 5 0;
#X connect 9 0 10 1;
#X connect 10 0 7 0;
#X connect 11 0 9 0;
#X restore 136 349 pd osc~synth;
#X text 177 225 the synth would normally be an abstraction to make
updating easier;
#X text 130 131 poly acts as a voice allocator and keeps track of the
incoming midi note and velocity freeing up slots on the fly when note-off
(velocity 0) is received;
#X floatatom 150 83 5 0 0 0 - - -, f 5;
#X floatatom 226 84 5 0 0 0 - - -, f 5;
#X connect 0 0 12 0;
#X connect 0 1 12 1;
#X connect 1 0 2 0;
#X connect 2 0 4 0;
#X connect 2 1 13 0;
#X connect 2 2 14 0;
#X connect 2 3 15 0;
#X connect 2 4 16 0;
#X connect 2 5 17 0;
#X connect 4 0 7 0;
#X connect 6 0 5 0;
#X connect 7 0 8 0;
#X connect 8 0 9 0;
#X connect 9 0 10 0;
#X connect 10 0 11 0;
#X connect 11 0 3 0;
#X connect 11 0 3 1;
#X connect 12 0 1 0;
#X connect 12 1 1 1;
#X connect 12 2 1 2;
#X connect 13 0 7 1;
#X connect 14 0 8 1;
#X connect 15 0 9 1;
#X connect 16 0 10 1;
#X connect 17 0 11 1;
#X connect 20 0 12 0;
#X connect 21 0 12 1;
