#N canvas 537 448 450 300 10;
#X obj 166 109 sel 0 1;
#X obj 166 220 line~;
#X obj 185 139 t b b;
#X msg 197 198 0.5 50;
#X msg 166 198 0 10;
#X msg 260 44 0;
#X obj 289 168 bng 15 250 50 0 empty empty empty 17 7 0 10 -262144
-1 -1;
#X obj 91 25 inlet;
#X obj 165 88 tgl 15 0 empty empty empty 17 7 0 10 -262144 -1 -1 1
1;
#X obj 166 250 outlet~;
#X obj 185 164 delay 1000;
#X obj 163 65 metro 100;
#X connect 0 0 4 0;
#X connect 0 1 2 0;
#X connect 1 0 9 0;
#X connect 2 0 10 0;
#X connect 2 1 3 0;
#X connect 3 0 1 0;
#X connect 4 0 1 0;
#X connect 5 0 11 0;
#X connect 7 0 11 0;
#X connect 8 0 0 0;
#X connect 10 0 4 0;
#X connect 11 0 8 0;
