#N canvas 1412 78 486 323 10;
#X obj 103 120 shell;
#X obj 130 143 print ScriptExec;
#X obj 112 218 outlet;
#X msg 103 76 sh /home/lxu/Documents/M1S1/Project1/shScript/GetSwap_Ubuntu.sh
;
#X obj 103 168 route UsedSwap MaxSwap;
#X obj 185 218 outlet;
#X obj 183 47 bng 15 250 50 0 empty empty empty 17 7 0 10 -262144 -1
-1;
#X obj 114 -32 inlet;
#X obj 185 25 metro 500;
#X connect 0 0 4 0;
#X connect 0 1 1 0;
#X connect 3 0 0 0;
#X connect 4 0 2 0;
#X connect 4 1 5 0;
#X connect 6 0 3 0;
#X connect 7 0 8 0;
#X connect 8 0 6 0;
