#N canvas -9 -9 1920 976 10;
#X obj 101 120 cnv 15 260 66 empty empty empty 20 12 0 14 -233017 -66577
0;
#X obj 101 104 cnv 15 260 18 empty empty volume 5 12 0 14 -262130 -66577
0;
#X obj 254 104 cnv 15 20 18 empty empty donnée/minMax 0 12 0 14 -262130
-66577 0;
#X obj 106 128 cnv 15 250 40 empty empty Multiplicateur 20 20 0 25
-204786 -66577 0;
#X obj 101 174 cnv 15 260 16 empty empty sortie_audio 5 12 0 14 -262130
-66577 0;
#X obj 210 288 *~;
#X obj 319 77 inlet~;
#X obj 99 78 inlet~;
#X obj 197 336 outlet~;
#X connect 5 0 8 0;
#X connect 6 0 5 0;
#X connect 7 0 5 1;
#X coords 0 -1 1 1 262 95 1 100 100;
