#N canvas 0 55 1920 1002 10;
#X obj 101 101 cnv 15 231 223 empty empty empty 20 12 0 14 -232576
-66577 0;
#X obj 106 106 cnv 15 221 40 empty empty Download 50 20 0 25 -204786
-66577 0;
#X obj 250 157 cnv 15 76 50 empty empty ↓-Packets 3 12 0 14 -188498
-262144 0;
#X obj 398 117 select 0 1;
#X obj 398 142 bng 15 250 50 0 empty empty empty 17 7 0 10 -262144
-1 -1;
#X obj 426 142 bng 15 250 50 0 empty empty empty 17 7 0 10 -262144
-1 -1;
#X floatatom 275 181 5 0 1 0 - - -, f 5;
#X obj 212 49 route PacketsReception;
#X obj 398 177 tomNetwork;
#X obj 187 167 bng 25 250 50 0 empty empty empty 17 7 0 10 -262144
-1 -1;
#X obj 200 180 image bouton.gif 0;
#X obj 386 262 dac~;
#X obj 106 218 cnv 15 221 40 empty empty Upload 65 20 0 25 -204786
-66577 0;
#X obj 251 269 cnv 15 76 50 empty empty ↑-Packets 3 12 0 14 -188498
-262144 0;
#X floatatom 275 292 5 0 0 0 - - -, f 5;
#X obj 394 302 select 0 1;
#X obj 394 335 bng 15 250 50 0 empty empty empty 17 7 0 10 -262144
-1 -1;
#X obj 422 335 bng 15 250 50 0 empty empty empty 17 7 0 10 -262144
-1 -1;
#X obj 216 438 route PacketsEmission;
#X obj 391 377 tomNetwork;
#X obj 187 279 bng 25 250 50 0 empty empty empty 17 7 0 10 -262144
-1 -1;
#X obj 200 292 image bouton.gif 0;
#X obj 398 445 dac~;
#X obj 113 157 loadScript-NoParameters2;
#X obj 117 271 loadScript-NoParameters2;
#X connect 3 0 4 0;
#X connect 3 1 5 0;
#X connect 4 0 8 0;
#X connect 5 0 8 1;
#X connect 6 0 3 0;
#X connect 7 0 6 0;
#X connect 8 0 11 0;
#X connect 8 0 11 1;
#X connect 9 0 23 0;
#X connect 14 0 15 0;
#X connect 15 0 16 0;
#X connect 15 1 17 0;
#X connect 16 0 19 0;
#X connect 17 0 19 1;
#X connect 18 0 14 0;
#X connect 19 0 22 0;
#X connect 19 0 22 1;
#X connect 20 0 24 0;
#X connect 23 0 7 0;
#X connect 24 0 18 0;
#X coords 0 -1 1 1 233 225 1 100 100;
