#N canvas 716 424 677 536 10;
#X obj 101 101 cnv 15 346 300 empty empty empty 20 12 0 14 -232576
-66577 0;
#X obj 106 106 cnv 15 336 40 empty empty RAM 150 20 0 25 -204786 -66577
0;
#X obj 101 383 cnv 15 346 18 empty empty volume 5 12 0 14 -262130 -66577
0;
#X obj 396 383 cnv 15 20 18 empty empty donnée 0 12 0 14 -262130 -66577
0;
#X obj 256 156 cnv 15 75 50 empty empty Max_RAM 10 12 0 14 -188498
-262144 0;
#X obj 367 156 cnv 15 75 50 empty empty Used_RAM 6 12 0 14 -188498
-262144 0;
#X obj 192 160 tgl 25 0 empty empty empty 17 7 0 10 -262144 -1 -1 0
1;
#X floatatom 387 179 5 0 0 0 - - -, f 5;
#X floatatom 277 180 5 0 0 0 - - -, f 5;
#X obj 522 330 /;
#X obj 234 35 s bang 2;
#X obj 522 287 * 100;
#X obj 202 178 image 0.gif 0;
#X msg 131 37 open \$1.gif;
#X obj 413 420 outlet;
#X text 159 171 OFF;
#X text 223 171 ON;
#X obj 119 217 volume;
#X obj 83 418 outlet~;
#X obj 240 237 vsl 15 128 0 50 0 0 empty empty empty 0 -9 0 10 -262144
-1 -1 0 1;
#X obj 597 327 +;
#X obj 110 156 loadScript-NoParameters-RAM;
#X obj 261 279 cnv 15 75 50 empty empty empty 6 12 0 14 -58717 -262144
0;
#X floatatom 282 297 5 0 0 0 - - -, f 5;
#X obj 367 217 cnv 15 75 50 empty empty %-RAM 6 12 0 14 -188498 -262144
0;
#X floatatom 390 243 5 0 0 0 - - -, f 5;
#X text 257 236 20;
#X text 257 353 0;
#X connect 6 0 10 0;
#X connect 6 0 13 0;
#X connect 6 0 17 0;
#X connect 6 0 21 0;
#X connect 7 0 11 0;
#X connect 8 0 9 1;
#X connect 9 0 25 0;
#X connect 11 0 9 0;
#X connect 12 0 21 0;
#X connect 13 0 12 0;
#X connect 17 0 18 0;
#X connect 19 0 20 1;
#X connect 20 0 23 0;
#X connect 21 0 8 0;
#X connect 21 1 7 0;
#X connect 23 0 14 0;
#X connect 25 0 20 0;
#X coords 0 -1 1 1 348 307 1 100 100;
