#N canvas 240 144 591 437 10;
#X obj 479 261 minmaxStorage;
#X obj 424 260 akick6;
#X obj 309 81 inlet;
#X obj 101 209 outlet~;
#X obj 419 335 *~;
#X obj 483 301 +~;
#X obj 101 123 cnv 15 260 66 empty empty empty 20 12 0 14 -204800 -66577
0;
#X obj 101 104 cnv 15 260 18 empty empty volume 5 12 0 14 -262130 -66577
0;
#X obj 213 104 cnv 15 20 18 empty empty donnée 0 12 0 14 -262130 -66577
0;
#X obj 106 128 cnv 15 250 40 empty empty Bang 95 20 0 25 -204786 -66577
0;
#X obj 101 174 cnv 15 260 16 empty empty sortie_audio 5 12 0 14 -262130
-66577 0;
#X obj 309 104 cnv 15 20 18 empty empty bouton 0 12 0 14 -262130 -66577
0;
#X obj 104 81 inlet~;
#X obj 216 80 inlet;
#X connect 0 0 5 1;
#X connect 1 0 5 0;
#X connect 2 0 0 0;
#X connect 4 0 3 0;
#X connect 5 0 4 1;
#X connect 12 0 4 0;
#X connect 13 0 1 0;
#X connect 13 0 1 1;
#X coords 0 -1 1 1 262 95 1 100 100;
