#N canvas 248 298 1440 759 10;
#X obj 101 101 cnv 15 317 220 empty empty empty 20 12 0 14 -232576
-66577 0;
#X obj 106 106 cnv 15 307 40 empty empty Check-Size 75 20 0 25 -204786
-66577 0;
#X obj 313 157 cnv 15 100 50 empty empty Taille_(Mb) 7 12 0 14 -188498
-262144 0;
#X obj 598 95 openpanel;
#X obj 497 201 shell;
#X floatatom 330 182 10 0 0 0 - - -, f 10;
#X obj 574 172 print ScriptExec;
#X obj 254 169 bng 23 250 50 0 empty empty empty 17 7 0 10 -262144
-1 -1;
#X obj 497 172 route list;
#X obj 497 128 pack s s s;
#X obj 534 95 openpanel;
#X msg 497 95 sh;
#X obj 119 167 bng 23 250 50 0 empty empty empty 17 7 0 10 -262144
-1 -1;
#X obj 185 167 bng 30 250 50 0 empty empty empty 17 7 0 10 -262144
-1 -1;
#X obj 496 270 akick6;
#X obj 487 311 dac~;
#X obj 119 276 bng 23 250 50 0 empty empty empty 17 7 0 10 -262144
-1 -1;
#X obj 234 41 metro 600;
#X obj 234 8 tgl 15 0 empty empty empty 17 7 0 10 -262144 -1 -1 0 1
;
#X obj 386 282 bng 23 250 50 0 empty empty empty 17 7 0 10 -262144
-1 -1;
#X obj 541 448 pack s s s;
#X msg 541 415 sh;
#X obj 569 366 openpanel;
#X obj 541 476 route list;
#X obj 540 501 shell;
#X obj 623 476 print Delete;
#X obj 128 181 image sh.gif 0;
#X obj 197 181 image file.gif 0;
#X obj 266 182 image done.gif 0;
#X obj 106 218 cnv 15 307 40 empty empty Delete-File 65 20 0 25 -204786
-66577 0;
#X obj 128 290 image sh.gif 0;
#X obj 248 279 bng 30 250 50 0 empty empty empty 17 7 0 10 -262144
-1 -1;
#X obj 263 289 image file.gif 0;
#X obj 395 291 image poubelle.gif 0;
#X obj 498 234 mtof;
#X connect 3 0 9 2;
#X connect 3 0 20 2;
#X connect 4 0 5 0;
#X connect 5 0 34 0;
#X connect 7 0 11 0;
#X connect 8 0 4 0;
#X connect 9 0 8 0;
#X connect 9 0 6 0;
#X connect 10 0 9 1;
#X connect 11 0 9 0;
#X connect 12 0 10 0;
#X connect 13 0 3 0;
#X connect 14 0 15 0;
#X connect 14 0 15 1;
#X connect 16 0 22 0;
#X connect 17 0 7 0;
#X connect 18 0 17 0;
#X connect 19 0 21 0;
#X connect 20 0 23 0;
#X connect 20 0 25 0;
#X connect 21 0 20 0;
#X connect 22 0 20 1;
#X connect 23 0 24 0;
#X connect 31 0 3 0;
#X connect 34 0 14 0;
#X connect 34 0 14 1;
#X coords 0 -1 1 1 319 222 1 100 100;
