#N canvas 310 284 1440 759 10;
#X obj 101 101 cnv 15 231 283 empty empty empty 20 12 0 14 -232576
-66577 0;
#X obj 106 106 cnv 15 221 40 empty empty Storage 55 20 0 25 -204786
-66577 0;
#X obj 252 157 cnv 15 75 50 empty empty %-Storage 3 12 0 14 -188498
-262144 0;
#X obj 186 165 bng 25 250 50 0 empty empty empty 17 7 0 10 -262144
-1 -1;
#X floatatom 277 181 5 0 0 0 - - -, f 5;
#X floatatom 434 221 5 0 0 0 - - -, f 5;
#X obj 107 157 loadScript-NoParameters;
#X obj 101 384 cnv 15 231 18 empty empty volume 5 12 0 14 -262130 -66577
0;
#X obj 104 408 outlet~;
#X obj 191 384 cnv 15 20 18 empty empty donnée 0 12 0 14 -262130 -66577
0;
#X obj 279 384 cnv 15 20 18 empty empty bouton 0 12 0 14 -262130 -66577
0;
#X obj 175 219 GUI-Volume;
#X obj 330 556 outlet;
#X obj 199 409 outlet;
#X obj 199 178 image bouton.gif 0;
#X connect 3 0 12 0;
#X connect 3 0 6 0;
#X connect 4 0 5 0;
#X connect 5 0 13 0;
#X connect 6 0 4 0;
#X connect 11 0 8 0;
#X coords 0 -1 1 1 233 306 1 100 100;
