#N canvas 324 452 450 300 10;
#X obj 92 106 vsl 15 128 0 1 0 0 empty empty empty 0 -9 0 10 -262144
-1 -1 0 1;
#X text 260 14 volume;
#X obj 98 47 line;
#X obj 98 -1 sel 0 1;
#X msg 98 21 0 100;
#X msg 142 21 0.8 100;
#X msg 240 131 \$1 10;
#X obj 148 -31 inlet;
#X obj 275 187 outlet;
#X obj 121 115 vu 15 120 empty empty -1 -8 0 10 -66577 -1 1 0;
#X obj 202 54 env~;
#X obj 198 87 - 100;
#X obj 289 154 line;
#X connect 0 0 10 0;
#X connect 0 0 6 0;
#X connect 2 0 0 0;
#X connect 3 0 4 0;
#X connect 3 1 5 0;
#X connect 4 0 2 0;
#X connect 5 0 2 0;
#X connect 6 0 12 0;
#X connect 7 0 3 0;
#X connect 9 0 6 0;
#X connect 10 0 11 0;
#X connect 11 0 9 1;
#X connect 12 0 8 0;
#X coords 0 -1 1 1 85 160 1 86 86;
