#N canvas 1103 263 709 617 10;
#X obj 101 120 cnv 50 260 66 empty empty empty 20 12 0 14 -204800 -66577
0;
#X obj 101 104 cnv 15 260 18 empty empty volume 5 12 0 14 -262130 -66577
0;
#X obj 310 104 cnv 15 20 18 empty empty donnée 0 12 0 14 -262130 -66577
0;
#X obj -42 334 *~;
#X obj -42 426 *~;
#X obj -28 390 envtest;
#X obj 387 62 inlet;
#X obj -82 276 osc~;
#X obj -28 362 r bang 1;
#X obj 106 128 cnv 15 250 40 empty empty Synthé 80 20 0 25 -204786
-66577 0;
#X obj 101 174 cnv 15 260 16 empty empty sortie_audio 5 12 0 14 -262130
-66577 0;
#X obj -41 460 outlet~;
#X obj 62 65 inlet~;
#X obj 220 332 mtof;
#X floatatom 127 365 5 0 0 0 - - -, f 5;
#X connect 3 0 4 0;
#X connect 4 0 11 0;
#X connect 5 0 4 1;
#X connect 6 0 13 0;
#X connect 7 0 3 0;
#X connect 8 0 5 0;
#X connect 12 0 3 1;
#X connect 13 0 7 0;
#X connect 13 0 14 0;
#X coords 0 -1 1 1 262 95 1 100 100;
