#N canvas -9 -9 1920 976 10;
#X obj 654 165 tgl 20 0 empty empty empty 17 7 0 10 -262144 -1 -1 0
1;
#X obj 650 219 volume;
#X obj 747 306 select 0 1;
#X obj 747 331 bng 15 250 50 0 empty empty empty 17 7 0 10 -262144
-1 -1;
#X obj 775 331 bng 15 250 50 0 empty empty empty 17 7 0 10 -262144
-1 -1;
#X floatatom 747 266 5 0 1 0 - - -;
#X obj 747 242 route PacketsReception;
#X obj 747 366 tomNetwork;
#X obj 855 159 loadScript-NoParameters;
#X obj 101 101 cnv 15 200 150 empty empty empty 20 12 0 14 -233017
-66577 0;
#X obj 116 370 cnv 15 100 60 empty empty empty 20 12 0 14 -233017 -66577
0;
#X obj 101 227 cnv 15 231 18 empty empty volume 5 12 0 14 -262130 -66577
0;
#X obj 35 241 outlet~;
#X obj 211 227 cnv 15 20 18 empty empty donnée 0 12 0 14 -262130 -66577
0;
#X connect 0 0 8 0;
#X connect 1 0 12 0;
#X connect 2 0 3 0;
#X connect 2 1 4 0;
#X connect 3 0 7 0;
#X connect 4 0 7 1;
#X connect 5 0 2 0;
#X connect 6 0 5 0;
#X connect 8 0 6 0;
#X coords 0 -1 1 1 85 60 1 100 100;
