#N canvas 1271 568 500 327 10;
#X obj 238 6 inlet;
#X obj 189 177 outlet~;
#X floatatom 259 103 5 0 0 0 - - -, f 5;
#X obj 68 135 akick4;
#X obj 199 135 akick5;
#X obj 249 57 delay 333;
#X connect 0 0 3 0;
#X connect 0 0 5 0;
#X connect 3 0 1 0;
#X connect 4 0 1 0;
#X connect 5 0 4 0;
