#N canvas 584 235 849 727 10;
#X obj 211 204 shell;
#X floatatom 211 257 5 0 0 0 - - -, f 5;
#X obj 238 227 print ScriptExec;
#X obj 266 565 *~;
#X obj 57 347 vsl 15 128 0 1 0 0 empty empty empty 0 -9 0 10 -262144
-1 -1 10700 1;
#X obj 117 106 metro 1000;
#X obj 117 128 bng 15 250 50 0 empty empty empty 17 7 0 10 -262144
-1 -1;
#X text 244 256 % of RAM used;
#X obj 211 504 osc~;
#X text 76 380 volume;
#X obj 56 199 line;
#X obj 56 151 sel 0 1;
#X msg 56 173 0 100;
#X msg 100 173 0.8 100;
#X obj 43 524 line~;
#X msg 43 499 \$1 10;
#X obj 478 394 bng 15 250 50 0 empty empty empty 17 7 0 10 -262144
-1 -1;
#X obj 473 427 sel 0 1;
#X obj 492 458 t b b;
#X obj 478 585 line~;
#X obj 299 606 *~;
#X msg 211 161 sh /home/lxu/Documents/M1S1/Project1/shScript/GetCPU_Ubuntu.sh
;
#X obj 157 24 bng 15 250 50 0 empty empty empty 17 7 0 10 -262144 -1
-1;
#X obj 211 361 * 10;
#X floatatom 244 436 5 0 0 0 - - -, f 5;
#X msg 252 63 0;
#X msg 521 296 0;
#X obj 473 339 metro 1000;
#X msg 519 526 0.5 5000;
#X msg 473 528 100 1000;
#X obj 495 490 delay 1000;
#X obj 78 590 dac~;
#X connect 0 0 1 0;
#X connect 0 1 2 0;
#X connect 1 0 23 0;
#X connect 3 0 31 0;
#X connect 3 0 31 1;
#X connect 4 0 15 0;
#X connect 5 0 6 0;
#X connect 6 0 21 0;
#X connect 8 0 3 0;
#X connect 10 0 4 0;
#X connect 11 0 12 0;
#X connect 11 1 13 0;
#X connect 12 0 10 0;
#X connect 13 0 10 0;
#X connect 14 0 3 1;
#X connect 15 0 14 0;
#X connect 16 0 17 0;
#X connect 17 0 29 0;
#X connect 17 1 18 0;
#X connect 18 0 30 0;
#X connect 18 1 28 0;
#X connect 19 0 20 1;
#X connect 21 0 0 0;
#X connect 22 0 11 0;
#X connect 22 0 5 0;
#X connect 22 0 27 0;
#X connect 23 0 8 0;
#X connect 23 0 24 0;
#X connect 25 0 5 0;
#X connect 26 0 27 0;
#X connect 27 0 16 0;
#X connect 28 0 19 0;
#X connect 29 0 19 0;
#X connect 30 0 29 0;
