#N canvas 687 147 450 323 10;
#X obj 211 204 shell;
#X floatatom 211 257 5 0 0 0 - - -, f 5;
#X obj 238 227 print ScriptExec;
#X obj 129 599 *~;
#X obj 57 347 vsl 15 128 0 1 0 0 empty empty empty 0 -9 0 10 -262144
-1 -1 0 1;
#X floatatom 174 74 5 0 0 0 - - -, f 5;
#X obj 117 106 metro 1000;
#X obj 117 128 bng 15 250 50 0 empty empty empty 17 7 0 10 -262144
-1 -1;
#X text 244 256 % of RAM used;
#X obj 211 504 osc~;
#X text 76 380 volume;
#X obj 56 199 line;
#X obj 56 151 sel 0 1;
#X msg 56 173 0 100;
#X msg 100 173 0.8 100;
#X obj 43 524 line~;
#X msg 43 499 \$1 10;
#X obj 211 361 mod_CPU;
#X msg 211 161 sh /home/hub/Documents/Pd/GetCPUinfo1.sh;
#X obj 129 621 /~ 3;
#X obj 129 643 outlet~;
#X obj 116 24 inlet;
#X connect 0 0 1 0;
#X connect 0 1 2 0;
#X connect 1 0 17 0;
#X connect 3 0 19 0;
#X connect 4 0 16 0;
#X connect 5 0 6 1;
#X connect 6 0 7 0;
#X connect 7 0 18 0;
#X connect 9 0 3 0;
#X connect 11 0 4 0;
#X connect 12 0 13 0;
#X connect 12 1 14 0;
#X connect 13 0 11 0;
#X connect 14 0 11 0;
#X connect 15 0 3 1;
#X connect 16 0 15 0;
#X connect 17 0 9 0;
#X connect 18 0 0 0;
#X connect 19 0 20 0;
#X connect 21 0 6 0;
#X connect 21 0 12 0;
