#N canvas 462 247 639 732 10;
#X obj 24 31 bng 15 250 50 0 empty empty empty 17 7 0 10 -262144 -1
-1;
#X text 14 14 START;
#X msg 24 68 \; pd dsp 1;
#X obj 90 30 bng 15 250 50 0 empty empty empty 17 7 0 10 -262144 -1
-1;
#X text 80 13 STOP;
#X msg 90 68 \; pd dsp 0;
#N canvas 850 483 220 177 soundfile 1;
#X obj 38 56 openpanel;
#X msg 38 75 read -resize \$1 test;
#X obj 38 94 soundfiler;
#X obj 38 132 s odur;
#X obj 38 113 / 44.1;
#X obj 38 37 inlet;
#X obj 85 132 s ndur;
#X obj 132 132 s orig;
#X connect 0 0 1 0;
#X connect 1 0 2 0;
#X connect 2 0 4 0;
#X connect 4 0 3 0;
#X connect 4 0 6 0;
#X connect 4 0 7 0;
#X connect 5 0 0 0;
#X restore 28 185 pd soundfile;
#X obj 28 153 bng 15 250 50 0 empty empty empty 0 -6 0 8 -262144 -1
-1;
#N canvas 0 22 254 197 offset 0;
#X obj 91 65 r offset;
#X obj 91 105 -;
#X obj 91 85 t b f;
#X obj 91 125 s odur;
#X obj 132 88 r orig;
#X connect 0 0 2 0;
#X connect 1 0 3 0;
#X connect 2 0 1 0;
#X connect 2 1 1 1;
#X connect 4 0 1 0;
#X restore 28 134 pd offset;
#X obj 200 94 tgl 16 0 empty empty empty 17 7 0 10 -262144 -1 -1 0
1;
#X text 27 207 SECOND: bang this!;
#X obj 30 227 bng 15 250 50 0 empty empty empty 0 -6 0 8 -262144 -1
-1;
#X msg 30 246 \; opitch 60 \; npitch 60 \; window 50 \; porta 10 \;
pd dsp 1;
#X text 20 111 FIRST: load a soundfile:;
#X obj 157 229 metro 2400;
#N canvas 0 22 450 300 (subpatch) 0;
#X array test 211529 float 0 black black;
#X coords 0 1 211528 -1 200 140 1;
#X restore 300 137 graph;
#X obj 177 354 r odur;
#X floatatom 177 374 5 0 0 1 original-duration - -, f 5;
#X floatatom 204 388 5 0 0 1 new-duration ndur -, f 5;
#X floatatom 231 402 3 0 0 1 original-pitch opitch -, f 3;
#X floatatom 259 416 3 0 0 1 new-pitch npitch -, f 3;
#X floatatom 313 448 5 1 300 1 window(ms) window -, f 5;
#X floatatom 341 462 5 0 0 1 portamento(ms) porta -, f 5;
#X floatatom 166 312 5 -100 100000 2 offset - -, f 5;
#X obj 177 334 s offset;
#X obj 150 334 f;
#X obj 150 283 bng 15 250 50 0 empty empty trigger 0 -6 0 12 -262144
-1 -1;
#X floatatom 245 499 5 0 0 0 position - -, f 5;
#X floatatom 341 499 5 0 0 1 duration - -, f 5;
#X obj 145 512 hip~ 18;
#X obj 150 480 p-t-player~ buffer1 300 test;
#X obj 143 150 inlet;
#X obj 147 565 outlet~;
#X obj 339 327 inlet;
#X msg 286 431 test;
#X connect 0 0 2 0;
#X connect 3 0 5 0;
#X connect 7 0 6 0;
#X connect 11 0 12 0;
#X connect 14 0 26 0;
#X connect 16 0 17 0;
#X connect 17 0 30 1;
#X connect 18 0 30 2;
#X connect 19 0 30 3;
#X connect 20 0 30 4;
#X connect 21 0 30 6;
#X connect 22 0 30 7;
#X connect 23 0 24 0;
#X connect 23 0 25 1;
#X connect 25 0 30 0;
#X connect 26 0 25 0;
#X connect 29 0 32 0;
#X connect 30 0 29 0;
#X connect 30 1 27 0;
#X connect 30 2 28 0;
#X connect 31 0 14 0;
#X connect 33 0 30 4;
#X connect 34 0 30 5;
#X coords 0 0 1 1 100 100 0;
