#N canvas 0 23 639 732 10;
#X obj 26 28 bng 15 250 50 0 empty empty empty 17 7 0 10 -262144 -1
-1;
#X text 16 11 START;
#X msg 26 65 \; pd dsp 1;
#X obj 92 27 bng 15 250 50 0 empty empty empty 17 7 0 10 -262144 -1
-1;
#X text 82 10 STOP;
#X msg 92 65 \; pd dsp 0;
#N canvas 0 22 220 177 soundfile 0;
#X obj 38 56 openpanel;
#X msg 38 75 read -resize \$1 test;
#X obj 38 94 soundfiler;
#X obj 38 132 s odur;
#X obj 38 113 / 44.1;
#X obj 38 37 inlet;
#X obj 85 132 s ndur;
#X obj 132 132 s orig;
#X connect 0 0 1 0;
#X connect 1 0 2 0;
#X connect 2 0 4 0;
#X connect 4 0 3 0;
#X connect 4 0 6 0;
#X connect 4 0 7 0;
#X connect 5 0 0 0;
#X restore 30 181 pd soundfile;
#X obj 30 149 bng 15 250 50 0 empty empty empty 0 -6 0 8 -262144 -1
-1;
#N canvas 0 22 254 197 offset 0;
#X obj 91 65 r offset;
#X obj 91 105 -;
#X obj 91 85 t b f;
#X obj 91 125 s odur;
#X obj 132 88 r orig;
#X connect 0 0 2 0;
#X connect 1 0 3 0;
#X connect 2 0 1 0;
#X connect 2 1 1 1;
#X connect 4 0 1 0;
#X restore 30 130 pd offset;
#X obj 210 29 tgl 16 0 empty empty empty 17 7 0 10 -262144 -1 -1 1
1;
#X text 27 207 SECOND: bang this!;
#X obj 30 227 bng 15 250 50 0 empty empty empty 0 -6 0 8 -262144 -1
-1;
#X msg 30 246 \; opitch 60 \; npitch 60 \; window 50 \; porta 10 \;
pd dsp 1;
#X text 20 111 FIRST: load a soundfile:;
#X floatatom 288 113 4 0 0 0 - - -, f 4;
#X obj 212 232 dac~;
#X obj 306 73 hsl 128 15 0 127 0 0 empty empty empty -2 -8 0 10 -262144
-1 -1 5200 1;
#X obj 210 72 metro 2400;
#X obj 213 153 SamplePlayer;
#X connect 0 0 2 0;
#X connect 3 0 5 0;
#X connect 7 0 6 0;
#X connect 9 0 17 0;
#X connect 11 0 12 0;
#X connect 14 0 18 1;
#X connect 16 0 14 0;
#X connect 17 0 18 0;
#X connect 18 0 15 0;
