#N canvas 0 55 1920 1002 10;
#X text 17 20 INLETS:;
#X text 72 20 offset(trig) odur ndur opitch npitch audio-tab window
porta;
#N canvas 735 512 450 300 (subpatch) 0;
#X array test 211529 float 0 black black;
#X coords 0 1 211528 -1 200 140 1;
#X restore 347 73 graph;
#X obj 78 305 r odur;
#X floatatom 78 325 5 0 0 1 original-duration - -, f 5;
#X floatatom 105 339 5 0 0 1 new-duration ndur -, f 5;
#X floatatom 132 353 3 0 0 1 original-pitch opitch -, f 3;
#X floatatom 160 367 3 0 0 1 new-pitch npitch -, f 3;
#X text 17 35 INIT: buffer-name buffer-size(ms) audio-table;
#X floatatom 214 399 5 1 300 1 window(ms) window -, f 5;
#X floatatom 242 413 5 0 0 1 portamento(ms) porta -, f 5;
#X floatatom 67 263 5 -100 100000 2 offset - -, f 5;
#X obj 78 285 s offset;
#X obj 51 285 f;
#X obj 51 234 bng 15 250 50 0 empty empty trigger 0 -6 0 12 -262144
-1 -1;
#X floatatom 146 450 5 0 0 0 position - -, f 5;
#X floatatom 242 450 5 0 0 1 duration - -, f 5;
#X obj 46 463 hip~ 18;
#X obj 51 431 p-t-player~ buffer1 300 test;
#X obj 157 653 outlet~;
#X msg 187 382 test;
#N canvas 0 22 220 177 soundfile 0;
#X obj 38 56 openpanel;
#X msg 38 75 read -resize \$1 test;
#X obj 38 94 soundfiler;
#X obj 38 132 s odur;
#X obj 38 113 / 44.1;
#X obj 38 37 inlet;
#X obj 85 132 s ndur;
#X obj 132 132 s orig;
#X connect 0 0 1 0;
#X connect 1 0 2 0;
#X connect 2 0 4 0;
#X connect 4 0 3 0;
#X connect 4 0 6 0;
#X connect 4 0 7 0;
#X connect 5 0 0 0;
#X restore 560 345 pd soundfile;
#X obj 560 313 bng 15 250 50 0 empty empty empty 0 -6 0 8 -262144 -1
-1;
#N canvas 0 22 254 197 offset 0;
#X obj 91 65 r offset;
#X obj 91 105 -;
#X obj 91 85 t b f;
#X obj 91 125 s odur;
#X obj 132 88 r orig;
#X connect 0 0 2 0;
#X connect 1 0 3 0;
#X connect 2 0 1 0;
#X connect 2 1 1 1;
#X connect 4 0 1 0;
#X restore 560 294 pd offset;
#X obj 208 181 bng 15 250 50 0 empty empty empty 0 -6 0 8 -262144 -1
-1;
#X msg 209 200 \; opitch 60 \; npitch 60 \; window 50 \; porta 10 \;
pd dsp 1;
#X obj 158 594 lop~;
#X obj 48 183 metro 2400;
#X obj 351 502 * 2047;
#X obj 318 537 / 100;
#X floatatom 315 573 5 0 0 0 - - -, f 5;
#X floatatom 542 473 5 0 0 0 - - -, f 5;
#X floatatom 524 508 5 0 0 0 - - -, f 5;
#X floatatom 295 479 5 0 0 0 - - -, f 5;
#X obj 429 419 inlet;
#X obj 445 459 * -1;
#X obj 391 465 + 100;
#X obj 44 101 loadbang;
#X obj 122 107 t b b;
#X obj 156 624 *~;
#X obj 3 336 inlet~;
#X obj 36 152 tgl 15 0 empty empty empty 17 7 0 10 -262144 -1 -1 1
1;
#X connect 3 0 4 0;
#X connect 4 0 18 1;
#X connect 5 0 18 2;
#X connect 6 0 18 3;
#X connect 7 0 18 4;
#X connect 9 0 18 6;
#X connect 10 0 18 7;
#X connect 11 0 12 0;
#X connect 11 0 13 1;
#X connect 13 0 18 0;
#X connect 14 0 13 0;
#X connect 17 0 26 0;
#X connect 18 0 17 0;
#X connect 18 1 15 0;
#X connect 18 2 16 0;
#X connect 20 0 18 5;
#X connect 22 0 21 0;
#X connect 24 0 25 0;
#X connect 26 0 39 0;
#X connect 27 0 14 0;
#X connect 28 0 29 0;
#X connect 29 0 30 0;
#X connect 30 0 26 1;
#X connect 33 0 28 0;
#X connect 34 0 35 0;
#X connect 35 0 36 0;
#X connect 36 0 33 0;
#X connect 37 0 38 0;
#X connect 38 0 24 0;
#X connect 38 1 41 0;
#X connect 39 0 19 0;
#X connect 40 0 39 1;
#X connect 41 0 27 0;
#X coords 0 -1 1 1 82 50 1 554 290;
