#N canvas 0 23 1280 755 10;
#X text 17 20 INLETS:;
#X text 72 20 offset(trig) odur ndur opitch npitch audio-tab window
porta;
#N canvas 0 22 450 300 (subpatch) 0;
#X array test 211529 float 0 black black;
#X coords 0 1 211528 -1 200 140 1;
#X restore 347 73 graph;
#X obj 78 305 r odur;
#X floatatom 78 325 5 0 0 1 original-duration - -, f 5;
#X floatatom 105 339 5 0 0 1 new-duration ndur -, f 5;
#X floatatom 132 353 3 0 0 1 original-pitch opitch -, f 3;
#X floatatom 160 367 3 0 0 1 new-pitch npitch -, f 3;
#X text 17 35 INIT: buffer-name buffer-size(ms) audio-table;
#X floatatom 214 399 5 1 300 1 window(ms) window -, f 5;
#X floatatom 242 413 5 0 0 1 portamento(ms) porta -, f 5;
#X floatatom 67 263 5 -100 100000 2 offset - -, f 5;
#X obj 78 285 s offset;
#X obj 51 285 f;
#X obj 51 234 bng 15 250 50 0 empty empty trigger 0 -6 0 12 -262144
-1 -1;
#X floatatom 146 450 5 0 0 0 position - -, f 5;
#X floatatom 242 450 5 0 0 1 duration - -, f 5;
#X obj 46 463 hip~ 18;
#X obj 51 431 p-t-player~ buffer1 300 test;
#X obj 44 101 inlet;
#X obj 48 516 outlet~;
#X obj 240 278 inlet;
#X msg 187 382 test;
#X connect 3 0 4 0;
#X connect 4 0 18 1;
#X connect 5 0 18 2;
#X connect 6 0 18 3;
#X connect 7 0 18 4;
#X connect 9 0 18 6;
#X connect 10 0 18 7;
#X connect 11 0 12 0;
#X connect 11 0 13 1;
#X connect 13 0 18 0;
#X connect 14 0 13 0;
#X connect 17 0 20 0;
#X connect 18 0 17 0;
#X connect 18 1 15 0;
#X connect 18 2 16 0;
#X connect 19 0 14 0;
#X connect 21 0 18 4;
#X connect 22 0 18 5;
