#N canvas 260 199 1395 660 10;
#X text 17 20 INLETS:;
#X text 72 20 offset(trig) odur ndur opitch npitch audio-tab window
porta;
#N canvas 0 0 450 300 (subpatch) 0;
#X array test 211529 float 0 black black;
#X coords 0 1 211528 -1 200 140 1;
#X restore 347 73 graph;
#N canvas 0 0 220 177 soundfile 0;
#X obj 38 56 openpanel;
#X msg 38 75 read -resize \$1 test;
#X obj 38 94 soundfiler;
#X obj 38 132 s odur;
#X obj 38 113 / 44.1;
#X obj 38 37 inlet;
#X obj 85 132 s ndur;
#X obj 132 132 s orig;
#X connect 0 0 1 0;
#X connect 1 0 2 0;
#X connect 2 0 4 0;
#X connect 4 0 3 0;
#X connect 4 0 6 0;
#X connect 4 0 7 0;
#X connect 5 0 0 0;
#X restore 213 132 pd soundfile;
#X obj 213 95 bng 15 250 50 0 empty empty empty 0 -6 0 8 -262144 -1
-1;
#X obj 78 305 r odur;
#X floatatom 78 325 5 0 0 1 original-duration - -, f 5;
#X floatatom 105 339 5 0 0 1 new-duration ndur -, f 5;
#X floatatom 132 353 3 0 0 1 original-pitch opitch -, f 3;
#X floatatom 160 367 3 0 0 1 new-pitch npitch -, f 3;
#X msg 187 382 test;
#X text 17 35 INIT: buffer-name buffer-size(ms) audio-table;
#X floatatom 214 399 5 1 300 1 window(ms) window -, f 5;
#X floatatom 242 413 5 0 0 1 portamento(ms) porta -, f 5;
#X floatatom 67 263 5 -100 100000 2 offset - -, f 5;
#X obj 78 285 s offset;
#X obj 51 285 f;
#N canvas 0 0 254 197 offset 0;
#X obj 91 65 r offset;
#X obj 91 105 -;
#X obj 91 85 t b f;
#X obj 91 125 s odur;
#X obj 132 88 r orig;
#X connect 0 0 2 0;
#X connect 1 0 3 0;
#X connect 2 0 1 0;
#X connect 2 1 1 1;
#X connect 4 0 1 0;
#X restore 213 76 pd offset;
#X obj 51 234 bng 15 250 50 0 empty empty trigger 0 -6 0 12 -262144
-1 -1;
#X text 30 68 FIRST: load a soundfile-->;
#X text 389 245 SECOND: bang this!;
#X obj 417 262 bng 15 250 50 0 empty empty empty 0 -6 0 8 -262144 -1
-1;
#X floatatom 146 450 5 0 0 0 position - -, f 5;
#X floatatom 242 450 5 0 0 1 duration - -, f 5;
#X obj 51 468 hip~ 18;
#X obj 51 431 p-t-player~ buffer1 300 test;
#X msg 45 138 1;
#X msg 121 140 0;
#X obj 750 428 hsl 128 15 0 127 0 0 empty empty empty -2 -8 0 10 -262144
-1 -1 1877 1;
#X obj 465 570 lop~;
#X obj 772 499 mtof;
#X obj 44 101 inlet;
#X obj 461 638 outlet~;
#X msg 417 281 \; opitch 60 \; npitch 60 \; window 50 \; porta 10 \;
pd dsp 1;
#X obj 760 332 shell;
#X floatatom 760 387 5 0 0 0 - - -, f 5;
#X obj 787 355 print ScriptExec;
#X obj 666 256 bng 15 250 50 0 empty empty empty 17 7 0 10 -262144
-1 -1;
#X msg 649 301 0.8 100;
#X text 793 384 % of CPU used;
#X msg 662 194 1;
#X obj 667 234 metro 600;
#X obj 240 278 inlet;
#X obj 67 172 metro 2400;
#X msg 760 289 sh /home/lxu/Documents/M1S1/Project1/shScript/GetCPU_Ubuntu.sh
;
#X obj 229 564 dac~;
#X msg 743 195 0;
#X connect 4 0 3 0;
#X connect 5 0 6 0;
#X connect 6 0 25 1;
#X connect 7 0 25 2;
#X connect 8 0 25 3;
#X connect 9 0 25 4;
#X connect 10 0 25 5;
#X connect 12 0 25 6;
#X connect 13 0 25 7;
#X connect 14 0 15 0;
#X connect 14 0 16 1;
#X connect 16 0 25 0;
#X connect 18 0 16 0;
#X connect 21 0 33 0;
#X connect 24 0 29 0;
#X connect 25 0 24 0;
#X connect 25 1 22 0;
#X connect 25 2 23 0;
#X connect 26 0 43 0;
#X connect 27 0 43 0;
#X connect 28 0 30 0;
#X connect 29 0 45 0;
#X connect 29 0 45 1;
#X connect 30 0 29 1;
#X connect 31 0 26 0;
#X connect 31 0 40 0;
#X connect 34 0 35 0;
#X connect 34 1 36 0;
#X connect 35 0 28 0;
#X connect 37 0 44 0;
#X connect 40 0 41 0;
#X connect 41 0 37 0;
#X connect 42 0 25 4;
#X connect 43 0 18 0;
#X connect 44 0 34 0;
#X connect 46 0 41 0;
