#N canvas 1080 510 758 323 10;
#X obj 52 37 tgl 15 0 empty empty empty 17 7 0 10 -262144 -1 -1 0 1
;
#N canvas 332 223 525 546 modGetInfo 1;
#X obj 248 196 shell;
#X floatatom 248 251 5 0 0 0 - - -, f 5;
#X obj 275 219 print ScriptExec;
#X obj 166 564 *~;
#X obj 94 339 vsl 15 128 0 1 0 0 empty empty empty 0 -9 0 10 -262144
-1 -1 0 1;
#X floatatom 211 66 5 0 0 0 - - -, f 5;
#X obj 154 120 bng 15 250 50 0 empty empty empty 17 7 0 10 -262144
-1 -1;
#X obj 248 496 osc~;
#X text 113 372 volume;
#X obj 93 191 line;
#X obj 93 143 sel 0 1;
#X msg 93 165 0 100;
#X msg 137 165 0.8 100;
#X obj 80 516 line~;
#X msg 80 491 \$1 10;
#X obj 349 347 mod_CPU;
#X obj 166 613 /~ 3;
#X obj 166 635 outlet~;
#X obj 153 16 inlet;
#X floatatom 451 323 5 0 0 0 - - -, f 5;
#X obj 382 297 / 488;
#X msg 248 153 sh /home/hub/Documents/Pd/GetCPU_Ubuntu.sh;
#X text 281 248 % of CPU used;
#X obj 381 435 tgl 15 0 empty empty empty 17 7 0 10 -262144 -1 -1 0
1;
#X obj 381 455 sel 0 1;
#X obj 381 566 line~;
#X obj 400 485 t b b;
#X msg 412 544 0.5 50;
#X obj 248 576 *~;
#X msg 381 544 0 10;
#X obj 302 392 * 4;
#X obj 155 98 metro 400;
#X obj 400 510 delay 100;
#X obj 381 413 metro 100;
#X connect 0 0 1 0;
#X connect 0 1 2 0;
#X connect 1 0 30 0;
#X connect 3 0 28 0;
#X connect 4 0 14 0;
#X connect 5 0 31 1;
#X connect 6 0 21 0;
#X connect 7 0 3 0;
#X connect 9 0 4 0;
#X connect 10 0 11 0;
#X connect 10 1 12 0;
#X connect 11 0 9 0;
#X connect 12 0 9 0;
#X connect 13 0 3 1;
#X connect 14 0 13 0;
#X connect 16 0 17 0;
#X connect 18 0 10 0;
#X connect 18 0 31 0;
#X connect 18 0 33 0;
#X connect 19 0 15 0;
#X connect 20 0 19 0;
#X connect 21 0 0 0;
#X connect 23 0 24 0;
#X connect 24 0 29 0;
#X connect 24 1 26 0;
#X connect 25 0 28 1;
#X connect 26 0 32 0;
#X connect 26 1 27 0;
#X connect 27 0 25 0;
#X connect 28 0 16 0;
#X connect 29 0 25 0;
#X connect 30 0 7 0;
#X connect 31 0 6 0;
#X connect 32 0 29 0;
#X connect 33 0 23 0;
#X restore 52 76 pd modGetInfo;
#X obj 360 235 dac~ 1 2 3 4 5 6 7 8;
#X obj 141 37 tgl 15 0 empty empty empty 17 7 0 10 -262144 -1 -1 0
1;
#N canvas 1132 486 450 323 modGetInfo 0;
#X obj 248 196 shell;
#X floatatom 248 249 5 0 0 0 - - -, f 5;
#X obj 275 219 print ScriptExec;
#X obj 166 591 *~;
#X obj 94 339 vsl 15 128 0 1 0 0 empty empty empty 0 -9 0 10 -262144
-1 -1 0 1;
#X floatatom 211 66 5 0 0 0 - - -, f 5;
#X obj 154 98 metro 1000;
#X obj 154 120 bng 15 250 50 0 empty empty empty 17 7 0 10 -262144
-1 -1;
#X text 281 248 % of RAM used;
#X obj 248 496 osc~;
#X text 113 372 volume;
#X obj 93 191 line;
#X obj 93 143 sel 0 1;
#X msg 93 165 0 100;
#X msg 137 165 0.8 100;
#X obj 80 516 line~;
#X msg 80 491 \$1 10;
#X obj 248 353 mod_CPU;
#X msg 248 153 sh /home/hub/Documents/Pd/GetCPUinfo1.sh;
#X obj 166 613 /~ 3;
#X obj 166 635 outlet~;
#X obj 153 16 inlet;
#X connect 0 0 1 0;
#X connect 0 1 2 0;
#X connect 1 0 17 0;
#X connect 3 0 19 0;
#X connect 4 0 16 0;
#X connect 5 0 6 1;
#X connect 6 0 7 0;
#X connect 7 0 18 0;
#X connect 9 0 3 0;
#X connect 11 0 4 0;
#X connect 12 0 13 0;
#X connect 12 1 14 0;
#X connect 13 0 11 0;
#X connect 14 0 11 0;
#X connect 15 0 3 1;
#X connect 16 0 15 0;
#X connect 17 0 9 0;
#X connect 18 0 0 0;
#X connect 19 0 20 0;
#X connect 21 0 6 0;
#X connect 21 0 12 0;
#X restore 141 76 pd modGetInfo;
#X obj 228 37 tgl 15 0 empty empty empty 17 7 0 10 -262144 -1 -1 0
1;
#N canvas 0 22 450 300 modGetInfo 0;
#X obj 248 196 shell;
#X floatatom 248 249 5 0 0 0 - - -, f 5;
#X obj 275 219 print ScriptExec;
#X obj 166 591 *~;
#X obj 94 339 vsl 15 128 0 1 0 0 empty empty empty 0 -9 0 10 -262144
-1 -1 0 1;
#X floatatom 211 66 5 0 0 0 - - -, f 5;
#X obj 154 98 metro 1000;
#X obj 154 120 bng 15 250 50 0 empty empty empty 17 7 0 10 -262144
-1 -1;
#X text 281 248 % of RAM used;
#X obj 248 496 osc~;
#X text 113 372 volume;
#X obj 93 191 line;
#X obj 93 143 sel 0 1;
#X msg 93 165 0 100;
#X msg 137 165 0.8 100;
#X obj 80 516 line~;
#X msg 80 491 \$1 10;
#X obj 248 353 mod_CPU;
#X msg 248 153 sh /home/hub/Documents/Pd/GetCPUinfo1.sh;
#X obj 166 613 /~ 3;
#X obj 166 635 outlet~;
#X obj 153 16 inlet;
#X connect 0 0 1 0;
#X connect 0 1 2 0;
#X connect 1 0 17 0;
#X connect 3 0 19 0;
#X connect 4 0 16 0;
#X connect 5 0 6 1;
#X connect 6 0 7 0;
#X connect 7 0 18 0;
#X connect 9 0 3 0;
#X connect 11 0 4 0;
#X connect 12 0 13 0;
#X connect 12 1 14 0;
#X connect 13 0 11 0;
#X connect 14 0 11 0;
#X connect 15 0 3 1;
#X connect 16 0 15 0;
#X connect 17 0 9 0;
#X connect 18 0 0 0;
#X connect 19 0 20 0;
#X connect 21 0 6 0;
#X connect 21 0 12 0;
#X restore 228 76 pd modGetInfo;
#X obj 314 37 tgl 15 0 empty empty empty 17 7 0 10 -262144 -1 -1 0
1;
#N canvas 0 22 450 300 modGetInfo 0;
#X obj 248 196 shell;
#X floatatom 248 249 5 0 0 0 - - -, f 5;
#X obj 275 219 print ScriptExec;
#X obj 166 591 *~;
#X obj 94 339 vsl 15 128 0 1 0 0 empty empty empty 0 -9 0 10 -262144
-1 -1 0 1;
#X floatatom 211 66 5 0 0 0 - - -, f 5;
#X obj 154 98 metro 1000;
#X obj 154 120 bng 15 250 50 0 empty empty empty 17 7 0 10 -262144
-1 -1;
#X text 281 248 % of RAM used;
#X obj 248 496 osc~;
#X text 113 372 volume;
#X obj 93 191 line;
#X obj 93 143 sel 0 1;
#X msg 93 165 0 100;
#X msg 137 165 0.8 100;
#X obj 80 516 line~;
#X msg 80 491 \$1 10;
#X obj 248 353 mod_CPU;
#X msg 248 153 sh /home/hub/Documents/Pd/GetCPUinfo1.sh;
#X obj 166 613 /~ 3;
#X obj 166 635 outlet~;
#X obj 153 16 inlet;
#X connect 0 0 1 0;
#X connect 0 1 2 0;
#X connect 1 0 17 0;
#X connect 3 0 19 0;
#X connect 4 0 16 0;
#X connect 5 0 6 1;
#X connect 6 0 7 0;
#X connect 7 0 18 0;
#X connect 9 0 3 0;
#X connect 11 0 4 0;
#X connect 12 0 13 0;
#X connect 12 1 14 0;
#X connect 13 0 11 0;
#X connect 14 0 11 0;
#X connect 15 0 3 1;
#X connect 16 0 15 0;
#X connect 17 0 9 0;
#X connect 18 0 0 0;
#X connect 19 0 20 0;
#X connect 21 0 6 0;
#X connect 21 0 12 0;
#X restore 314 76 pd modGetInfo;
#X obj 402 35 tgl 15 0 empty empty empty 17 7 0 10 -262144 -1 -1 0
1;
#N canvas 0 22 450 300 modGetInfo 0;
#X obj 248 196 shell;
#X floatatom 248 249 5 0 0 0 - - -, f 5;
#X obj 275 219 print ScriptExec;
#X obj 166 591 *~;
#X obj 94 339 vsl 15 128 0 1 0 0 empty empty empty 0 -9 0 10 -262144
-1 -1 0 1;
#X floatatom 211 66 5 0 0 0 - - -, f 5;
#X obj 154 98 metro 1000;
#X obj 154 120 bng 15 250 50 0 empty empty empty 17 7 0 10 -262144
-1 -1;
#X text 281 248 % of RAM used;
#X obj 248 496 osc~;
#X text 113 372 volume;
#X obj 93 191 line;
#X obj 93 143 sel 0 1;
#X msg 93 165 0 100;
#X msg 137 165 0.8 100;
#X obj 80 516 line~;
#X msg 80 491 \$1 10;
#X obj 248 353 mod_CPU;
#X msg 248 153 sh /home/hub/Documents/Pd/GetCPUinfo1.sh;
#X obj 166 613 /~ 3;
#X obj 166 635 outlet~;
#X obj 153 16 inlet;
#X connect 0 0 1 0;
#X connect 0 1 2 0;
#X connect 1 0 17 0;
#X connect 3 0 19 0;
#X connect 4 0 16 0;
#X connect 5 0 6 1;
#X connect 6 0 7 0;
#X connect 7 0 18 0;
#X connect 9 0 3 0;
#X connect 11 0 4 0;
#X connect 12 0 13 0;
#X connect 12 1 14 0;
#X connect 13 0 11 0;
#X connect 14 0 11 0;
#X connect 15 0 3 1;
#X connect 16 0 15 0;
#X connect 17 0 9 0;
#X connect 18 0 0 0;
#X connect 19 0 20 0;
#X connect 21 0 6 0;
#X connect 21 0 12 0;
#X restore 402 74 pd modGetInfo;
#X obj 491 33 tgl 15 0 empty empty empty 17 7 0 10 -262144 -1 -1 0
1;
#N canvas 0 22 450 300 modGetInfo 0;
#X obj 248 196 shell;
#X floatatom 248 249 5 0 0 0 - - -, f 5;
#X obj 275 219 print ScriptExec;
#X obj 166 591 *~;
#X obj 94 339 vsl 15 128 0 1 0 0 empty empty empty 0 -9 0 10 -262144
-1 -1 0 1;
#X floatatom 211 66 5 0 0 0 - - -, f 5;
#X obj 154 98 metro 1000;
#X obj 154 120 bng 15 250 50 0 empty empty empty 17 7 0 10 -262144
-1 -1;
#X text 281 248 % of RAM used;
#X obj 248 496 osc~;
#X text 113 372 volume;
#X obj 93 191 line;
#X obj 93 143 sel 0 1;
#X msg 93 165 0 100;
#X msg 137 165 0.8 100;
#X obj 80 516 line~;
#X msg 80 491 \$1 10;
#X obj 248 353 mod_CPU;
#X msg 248 153 sh /home/hub/Documents/Pd/GetCPUinfo1.sh;
#X obj 166 613 /~ 3;
#X obj 166 635 outlet~;
#X obj 153 16 inlet;
#X connect 0 0 1 0;
#X connect 0 1 2 0;
#X connect 1 0 17 0;
#X connect 3 0 19 0;
#X connect 4 0 16 0;
#X connect 5 0 6 1;
#X connect 6 0 7 0;
#X connect 7 0 18 0;
#X connect 9 0 3 0;
#X connect 11 0 4 0;
#X connect 12 0 13 0;
#X connect 12 1 14 0;
#X connect 13 0 11 0;
#X connect 14 0 11 0;
#X connect 15 0 3 1;
#X connect 16 0 15 0;
#X connect 17 0 9 0;
#X connect 18 0 0 0;
#X connect 19 0 20 0;
#X connect 21 0 6 0;
#X connect 21 0 12 0;
#X restore 491 74 pd modGetInfo;
#X obj 582 33 tgl 15 0 empty empty empty 17 7 0 10 -262144 -1 -1 0
1;
#N canvas 0 22 450 300 modGetInfo 0;
#X obj 248 196 shell;
#X floatatom 248 249 5 0 0 0 - - -, f 5;
#X obj 275 219 print ScriptExec;
#X obj 166 591 *~;
#X obj 94 339 vsl 15 128 0 1 0 0 empty empty empty 0 -9 0 10 -262144
-1 -1 0 1;
#X floatatom 211 66 5 0 0 0 - - -, f 5;
#X obj 154 98 metro 1000;
#X obj 154 120 bng 15 250 50 0 empty empty empty 17 7 0 10 -262144
-1 -1;
#X text 281 248 % of RAM used;
#X obj 248 496 osc~;
#X text 113 372 volume;
#X obj 93 191 line;
#X obj 93 143 sel 0 1;
#X msg 93 165 0 100;
#X msg 137 165 0.8 100;
#X obj 80 516 line~;
#X msg 80 491 \$1 10;
#X obj 248 353 mod_CPU;
#X msg 248 153 sh /home/hub/Documents/Pd/GetCPUinfo1.sh;
#X obj 166 613 /~ 3;
#X obj 166 635 outlet~;
#X obj 153 16 inlet;
#X connect 0 0 1 0;
#X connect 0 1 2 0;
#X connect 1 0 17 0;
#X connect 3 0 19 0;
#X connect 4 0 16 0;
#X connect 5 0 6 1;
#X connect 6 0 7 0;
#X connect 7 0 18 0;
#X connect 9 0 3 0;
#X connect 11 0 4 0;
#X connect 12 0 13 0;
#X connect 12 1 14 0;
#X connect 13 0 11 0;
#X connect 14 0 11 0;
#X connect 15 0 3 1;
#X connect 16 0 15 0;
#X connect 17 0 9 0;
#X connect 18 0 0 0;
#X connect 19 0 20 0;
#X connect 21 0 6 0;
#X connect 21 0 12 0;
#X restore 582 72 pd modGetInfo;
#X obj 672 35 tgl 15 0 empty empty empty 17 7 0 10 -262144 -1 -1 0
1;
#N canvas 0 22 450 300 modGetInfo 0;
#X obj 248 196 shell;
#X floatatom 248 249 5 0 0 0 - - -, f 5;
#X obj 275 219 print ScriptExec;
#X obj 166 591 *~;
#X obj 94 339 vsl 15 128 0 1 0 0 empty empty empty 0 -9 0 10 -262144
-1 -1 0 1;
#X floatatom 211 66 5 0 0 0 - - -, f 5;
#X obj 154 98 metro 1000;
#X obj 154 120 bng 15 250 50 0 empty empty empty 17 7 0 10 -262144
-1 -1;
#X text 281 248 % of RAM used;
#X obj 248 496 osc~;
#X text 113 372 volume;
#X obj 93 191 line;
#X obj 93 143 sel 0 1;
#X msg 93 165 0 100;
#X msg 137 165 0.8 100;
#X obj 80 516 line~;
#X msg 80 491 \$1 10;
#X obj 248 353 mod_CPU;
#X msg 248 153 sh /home/hub/Documents/Pd/GetCPUinfo1.sh;
#X obj 166 613 /~ 3;
#X obj 166 635 outlet~;
#X obj 153 16 inlet;
#X connect 0 0 1 0;
#X connect 0 1 2 0;
#X connect 1 0 17 0;
#X connect 3 0 19 0;
#X connect 4 0 16 0;
#X connect 5 0 6 1;
#X connect 6 0 7 0;
#X connect 7 0 18 0;
#X connect 9 0 3 0;
#X connect 11 0 4 0;
#X connect 12 0 13 0;
#X connect 12 1 14 0;
#X connect 13 0 11 0;
#X connect 14 0 11 0;
#X connect 15 0 3 1;
#X connect 16 0 15 0;
#X connect 17 0 9 0;
#X connect 18 0 0 0;
#X connect 19 0 20 0;
#X connect 21 0 6 0;
#X connect 21 0 12 0;
#X restore 672 74 pd modGetInfo;
#X text 108 96 CPU;
#X text 201 96 RAM;
#X text 282 97 Swap;
#X text 331 94 Disque dur;
#X text 431 92 Partition;
#X text 550 94 GPU;
#X text 597 94 Zombie;
#X text 682 94 Flux global;
#X connect 0 0 1 0;
#X connect 1 0 2 0;
#X connect 1 0 2 1;
#X connect 3 0 4 0;
#X connect 4 0 2 1;
#X connect 5 0 6 0;
#X connect 6 0 2 2;
#X connect 7 0 8 0;
#X connect 8 0 2 3;
#X connect 9 0 10 0;
#X connect 10 0 2 4;
#X connect 11 0 12 0;
#X connect 12 0 2 5;
#X connect 13 0 14 0;
#X connect 14 0 2 6;
#X connect 15 0 16 0;
#X connect 16 0 2 7;
