#N canvas 354 201 1212 765 10;
#X obj -195 103 tgl 15 0 empty empty empty 17 7 0 10 -262144 -1 -1
0 1;
#X obj -99 148 dataCPU;
#X floatatom -99 178 5 0 0 0 - - -, f 5;
#X obj -195 147 volume;
#X obj -64 680 *~;
#X obj -64 718 *~;
#X obj -37 680 envtest;
#X text -55 179 % of CPU;
#X obj 20 104 tgl 15 0 empty empty empty 17 7 0 10 -262144 -1 -1 0
1;
#X floatatom 116 179 5 0 0 0 - - -, f 5;
#X obj 16 157 volume;
#X obj 116 143 dataRAM;
#X floatatom 155 179 5 0 0 0 - - -, f 5;
#X obj 116 251 /;
#X floatatom 116 277 5 0 0 0 - - -, f 5;
#X obj 566 154 volume;
#X obj 694 131 bng 15 250 50 0 empty empty empty 17 7 0 10 -262144
-1 -1;
#X obj 660 175 GetBatteryLevel_Ubuntu;
#X text 698 252 % battery;
#X obj 796 151 volume;
#X floatatom 968 165 5 0 0 0 - - -, f 5;
#X floatatom 902 213 5 0 0 0 - - -, f 5;
#X obj 902 134 GetSwap_Ubuntu;
#X obj 893 102 tgl 15 0 empty empty empty 17 7 0 10 -262144 -1 -1 0
1;
#X obj 1015 104 tgl 15 0 empty empty empty 17 7 0 10 -262144 -1 -1
0 1;
#X obj 1011 155 volume;
#X obj 1108 150 dataNetwork;
#X obj 1108 242 select 0 1;
#X obj 1108 267 bng 15 250 50 0 empty empty empty 17 7 0 10 -262144
-1 -1;
#X obj 1136 267 bng 15 250 50 0 empty empty empty 17 7 0 10 -262144
-1 -1;
#X floatatom 1108 202 5 0 1 0 - - -, f 5;
#X obj 1108 178 route PacketsReception;
#X obj 1108 363 *~;
#X obj 1254 102 tgl 15 0 empty empty empty 17 7 0 10 -262144 -1 -1
0 1;
#X obj 1250 155 volume;
#X obj 1347 359 *~;
#X floatatom 1347 200 5 0 0 0 - - -, f 5;
#X obj 1347 237 select 0 1;
#X obj 1347 270 bng 15 250 50 0 empty empty empty 17 7 0 10 -262144
-1 -1;
#X obj 1375 270 bng 15 250 50 0 empty empty empty 17 7 0 10 -262144
-1 -1;
#X obj 1347 177 route PacketsEmission;
#X obj 1347 151 dataNetwork;
#X floatatom 660 207 5 0 0 0 - - -, f 5;
#X obj 1344 312 tomNetwork;
#X obj 1108 302 tomNetwork;
#X obj 893 368 SamplePlayer2;
#X text 934 211 swap value;
#X text 897 164 max swap;
#X obj 325 688 dac~;
#X obj -65 600 osc~;
#X obj -138 98 s bang 1;
#X obj -37 646 r bang 1;
#X obj 75 98 s bang 2;
#X obj 73 417 synth;
#X obj 149 412 synth;
#X obj 116 208 * 100;
#X obj 116 307 * 10;
#X obj 660 234 * 10;
#X obj 902 247 * 100;
#X obj 953 276 /;
#X obj 275 152 volume;
#X obj 424 129 bng 15 250 50 0 empty empty empty 17 7 0 10 -262144
-1 -1;
#X floatatom 369 251 5 0 0 0 - - -, f 5;
#X obj 369 278 * 10;
#X obj 368 198 GetStorageUtilisation_Ubuntu;
#X text 407 250 % storage;
#X floatatom 928 304 5 0 0 0 - - -, f 5;
#X obj 846 61 bng 15 250 50 0 empty empty empty 17 7 0 10 -262144 -1
-1;
#X obj 698 378 minmaxStorage;
#X obj 624 456 *~;
#X obj 643 380 akick6;
#X floatatom 660 270 5 0 0 0 - - -, f 5;
#X floatatom 369 328 5 0 0 0 - - -, f 5;
#X obj -164 404 generativ_osc;
#X obj -48 490 *~;
#X obj -99 220 + 200;
#X obj 353 74 metro 2400;
#X obj 606 104 delay 500;
#X obj -126 65 s bong;
#X obj 108 48 s bong;
#X obj 355 405 tom;
#X obj 689 430 tom;
#X connect 0 0 3 0;
#X connect 0 0 1 0;
#X connect 0 0 50 0;
#X connect 0 0 76 0;
#X connect 0 0 67 0;
#X connect 0 0 78 0;
#X connect 1 0 2 0;
#X connect 2 0 75 0;
#X connect 3 0 74 0;
#X connect 4 0 5 0;
#X connect 6 0 5 1;
#X connect 8 0 10 0;
#X connect 8 0 11 0;
#X connect 8 0 52 0;
#X connect 8 0 79 0;
#X connect 9 0 55 0;
#X connect 10 0 54 0;
#X connect 11 0 9 0;
#X connect 11 1 12 0;
#X connect 12 0 13 1;
#X connect 13 0 14 0;
#X connect 14 0 56 0;
#X connect 15 0 69 1;
#X connect 15 0 81 0;
#X connect 16 0 17 0;
#X connect 16 0 68 0;
#X connect 16 0 81 2;
#X connect 17 0 42 0;
#X connect 19 0 45 0;
#X connect 20 0 59 1;
#X connect 21 0 58 0;
#X connect 22 0 21 0;
#X connect 22 1 20 0;
#X connect 23 0 22 0;
#X connect 23 0 19 0;
#X connect 24 0 26 0;
#X connect 24 0 25 0;
#X connect 25 0 32 1;
#X connect 26 0 31 0;
#X connect 27 0 28 0;
#X connect 27 1 29 0;
#X connect 28 0 44 0;
#X connect 29 0 44 1;
#X connect 30 0 27 0;
#X connect 31 0 30 0;
#X connect 32 0 48 0;
#X connect 32 0 48 1;
#X connect 33 0 34 0;
#X connect 33 0 41 0;
#X connect 34 0 35 1;
#X connect 35 0 48 0;
#X connect 35 0 48 1;
#X connect 36 0 37 0;
#X connect 37 0 38 0;
#X connect 37 1 39 0;
#X connect 38 0 43 0;
#X connect 39 0 43 1;
#X connect 40 0 36 0;
#X connect 41 0 40 0;
#X connect 42 0 57 0;
#X connect 43 0 35 0;
#X connect 44 0 32 0;
#X connect 45 0 48 0;
#X connect 45 0 48 1;
#X connect 49 0 4 0;
#X connect 51 0 6 0;
#X connect 54 0 48 0;
#X connect 54 0 48 1;
#X connect 55 0 13 0;
#X connect 56 0 54 1;
#X connect 57 0 71 0;
#X connect 58 0 59 0;
#X connect 59 0 66 0;
#X connect 60 0 80 0;
#X connect 61 0 64 0;
#X connect 61 0 80 2;
#X connect 62 0 63 0;
#X connect 63 0 72 0;
#X connect 64 0 62 0;
#X connect 66 0 45 1;
#X connect 67 0 23 0;
#X connect 68 0 69 0;
#X connect 70 0 69 0;
#X connect 71 0 70 1;
#X connect 71 0 70 0;
#X connect 71 0 81 1;
#X connect 72 0 80 1;
#X connect 73 0 74 1;
#X connect 74 0 48 1;
#X connect 74 0 48 0;
#X connect 75 0 73 0;
#X connect 76 0 77 0;
#X connect 77 0 16 0;
#X connect 80 0 48 0;
#X connect 80 0 48 1;
#X connect 81 0 48 0;
#X connect 81 0 48 1;
