#N canvas 426 164 1152 637 10;
#X obj 264 74 shell;
#X msg 263 29 sh /home/arthur/ISEN/Recherche/Sonification/computer/Scripts/GetRAM_swap.sh
;
#X floatatom 264 120 5 0 0 0 - - -, f 5;
#X obj 291 97 print ScriptExec;
#X text 267 168 from 0 to 100;
#X text 271 211 from 0 to 100*a;
#X text 315 143 a;
#X text 337 187 b;
#X floatatom 264 273 5 0 0 0 - - -, f 5;
#X text 271 254 from b to 100*a+b;
#X obj 264 539 *~;
#X obj 336 307 vsl 15 128 0 1 0 0 empty empty empty 0 -9 0 10 -262144
-1 -1 0 1;
#X obj 170 -64 tgl 15 0 empty empty empty 17 7 0 10 -262144 -1 -1 0
1;
#X floatatom 227 -63 5 0 0 0 - - -, f 5;
#X obj 170 -31 metro 1000;
#X obj 170 -9 bng 15 250 50 0 empty empty empty 17 7 0 10 -262144 -1
-1;
#X floatatom 676 261 5 0 0 0 - - -, f 5;
#X obj 676 355 osc~;
#X obj 676 457 *~;
#X text 297 119 % of RAM used;
#X msg 676 112 0;
#X text 702 109 min % of RAM usable;
#X floatatom 842 262 5 0 0 0 - - -, f 5;
#X obj 842 356 osc~;
#X obj 842 458 *~;
#X msg 842 113 100;
#X text 868 110 max % of RAM usable;
#X obj 482 647 /~ 3;
#X obj 264 367 osc~;
#X obj 728 278 tgl 15 0 empty empty empty 17 7 0 10 -262144 -1 -1 1
1;
#X obj 728 298 sel 0 1;
#X obj 728 232 tgl 15 0 empty empty empty 17 7 0 10 -262144 -1 -1 0
1;
#X msg 728 387 0 10;
#X obj 728 409 line~;
#X msg 759 387 0.5 10;
#X obj 728 256 metro 1000;
#X obj 747 328 t b b;
#X obj 901 309 sel 0 1;
#X msg 901 398 0 10;
#X obj 901 420 line~;
#X obj 920 339 t b b;
#X obj 920 364 delay 200;
#X obj 901 281 pipe 200;
#X msg 932 398 0.2 10;
#X obj 676 80 loadbang;
#X obj 842 82 loadbang;
#X text 359 333 volume;
#X text 722 214 get reference tones;
#X obj 747 353 delay 100;
#X obj 477 730 dac~ 1 2;
#X obj 581 647 /~ 3;
#X obj 660 647 /~ 3;
#X obj 109 62 line;
#X obj 109 14 sel 0 1;
#X msg 109 36 0 100;
#X msg 153 36 0.8 100;
#X obj 326 477 line~;
#X msg 326 452 \$1 10;
#X obj 264 315 mtof;
#X obj 676 307 mtof;
#X obj 842 307 mtof;
#X obj 264 188 * 0.2;
#X msg 293 145 0.2;
#X msg 315 187 48;
#X obj 495 122 t b a;
#X obj 473 185 t b a;
#X obj 264 235 + 48;
#X obj 676 223 + 48;
#X obj 842 224 + 48;
#X obj 842 178 * 0.2;
#X obj 676 176 * 0.2;
#X connect 0 0 2 0;
#X connect 0 1 3 0;
#X connect 1 0 0 0;
#X connect 2 0 61 0;
#X connect 8 0 58 0;
#X connect 10 0 27 0;
#X connect 11 0 57 0;
#X connect 12 0 14 0;
#X connect 12 0 53 0;
#X connect 13 0 14 1;
#X connect 14 0 15 0;
#X connect 15 0 1 0;
#X connect 16 0 59 0;
#X connect 17 0 18 0;
#X connect 18 0 50 0;
#X connect 20 0 70 0;
#X connect 22 0 60 0;
#X connect 23 0 24 0;
#X connect 24 0 51 0;
#X connect 25 0 69 0;
#X connect 27 0 49 0;
#X connect 27 0 49 1;
#X connect 28 0 10 0;
#X connect 29 0 30 0;
#X connect 29 0 42 0;
#X connect 30 0 32 0;
#X connect 30 1 36 0;
#X connect 31 0 35 0;
#X connect 32 0 33 0;
#X connect 33 0 18 1;
#X connect 34 0 33 0;
#X connect 35 0 29 0;
#X connect 36 0 48 0;
#X connect 36 1 34 0;
#X connect 37 0 38 0;
#X connect 37 1 40 0;
#X connect 38 0 39 0;
#X connect 39 0 24 1;
#X connect 40 0 41 0;
#X connect 40 1 43 0;
#X connect 41 0 38 0;
#X connect 42 0 37 0;
#X connect 43 0 39 0;
#X connect 44 0 20 0;
#X connect 45 0 25 0;
#X connect 48 0 32 0;
#X connect 50 0 49 0;
#X connect 51 0 49 1;
#X connect 52 0 11 0;
#X connect 53 0 54 0;
#X connect 53 1 55 0;
#X connect 54 0 52 0;
#X connect 55 0 52 0;
#X connect 56 0 10 1;
#X connect 57 0 56 0;
#X connect 58 0 28 0;
#X connect 59 0 17 0;
#X connect 60 0 23 0;
#X connect 61 0 66 0;
#X connect 62 0 61 1;
#X connect 62 0 64 0;
#X connect 63 0 65 0;
#X connect 63 0 66 1;
#X connect 64 0 20 0;
#X connect 64 0 25 0;
#X connect 64 1 69 1;
#X connect 64 1 70 1;
#X connect 65 0 20 0;
#X connect 65 0 25 0;
#X connect 65 1 67 1;
#X connect 65 1 68 1;
#X connect 66 0 8 0;
#X connect 67 0 16 0;
#X connect 68 0 22 0;
#X connect 69 0 68 0;
#X connect 70 0 67 0;
