#N canvas 462 336 450 300 10;
#X obj 214 84 osctest;
#X obj 213 136 *~;
#X obj 147 86 line~;
#X obj 253 206 *~;
#X obj 268 149 envtest;
#X obj 214 22 inlet;
#X obj 302 114 inlet;
#X obj 101 21 inlet;
#X obj 269 249 outlet~;
#X connect 0 0 1 0;
#X connect 1 0 3 0;
#X connect 2 0 1 1;
#X connect 3 0 8 0;
#X connect 4 0 3 1;
#X connect 5 0 0 0;
#X connect 6 0 4 0;
#X connect 7 0 2 0;
