#N canvas 240 174 1440 759 10;
#X obj 101 101 cnv 15 231 283 empty empty empty 20 12 0 14 -232576
-66577 0;
#X obj 106 106 cnv 15 221 40 empty empty Storage 55 20 0 25 -204786
-66577 0;
#X obj 252 157 cnv 15 75 50 empty empty %-Storage 3 12 0 14 -188498
-262144 0;
#X obj 186 169 bng 20 250 50 0 empty empty empty 17 7 0 10 -262144
-1 -1;
#X floatatom 277 181 5 0 0 0 - - -, f 5;
#X obj 199 179 image bouton.gif 0;
#X obj 101 384 cnv 15 231 18 empty empty volume 5 12 0 14 -262130 -66577
0;
#X obj 104 408 outlet~;
#X obj 191 384 cnv 15 20 18 empty empty donnée 0 12 0 14 -262130 -66577
0;
#X obj 279 384 cnv 15 20 18 empty empty minMax 0 12 0 14 -262130 -66577
0;
#X obj 175 219 GUI-Volume;
#X obj 284 416 outlet;
#X obj 199 409 outlet;
#X obj 269 240 vsl 15 128 0 40 0 0 empty empty empty 0 -9 0 10 -262144
-1 -1 0 1;
#X obj 444 340 +;
#X floatatom 294 247 5 0 0 0 - - -, f 5;
#X obj 111 159 loadScript-NoParameters-battery;
#X connect 3 0 11 0;
#X connect 3 0 16 0;
#X connect 4 0 14 0;
#X connect 10 0 7 0;
#X connect 13 0 14 1;
#X connect 14 0 15 0;
#X connect 14 0 12 0;
#X connect 16 0 4 0;
#X coords 0 -1 1 1 233 306 1 100 100;
