#N canvas 1440 133 450 300 10;
#X obj 140 131 *~;
#X obj 140 169 *~;
#X obj 167 131 envtest;
#X obj 117 26 inlet;
#X obj 66 76 inlet;
#X obj 140 210 outlet~;
#X obj 144 68 osc~;
#X obj 167 97 r bang 1;
#X connect 0 0 1 0;
#X connect 1 0 5 0;
#X connect 2 0 1 1;
#X connect 3 0 6 0;
#X connect 4 0 0 1;
#X connect 6 0 0 0;
#X connect 7 0 2 0;
