#N canvas 0 55 1920 1002 10;
#X obj 451 511 makenote;
#X obj 357 595 noteout;
#X text 858 407 duration express in ms;
#X obj 216 96 nbx 5 14 -1e+37 1e+37 0 0 empty empty empty 0 -8 0 10
-262144 -1 -1 224.409 256 0;
#X text 238 62 metronome;
#X text 105 299 output random numbers in a moving range;
#X text 7 76 sends bang periodically with metronome;
#X text 732 246 velocity in midi = loudness of the volume;
#X obj 681 220 random 37;
#X obj 367 306 random 27;
#X obj 700 267 + 90;
#X obj 157 893 table Times 5;
#X msg 157 929 \; Times 0 500 1000 2000 1000 500;
#X obj 786 418 tabread;
#X obj 816 344 random 5;
#X msg 873 367 set Times;
#X obj 1088 151 receive m;
#X msg 1161 158 17 15 2;
#X obj 30 197 send m;
#X obj 803 279 send v;
#X obj 832 463 send t;
#X obj 1162 204 drunk;
#X obj 1278 308 receive v;
#X obj 1345 344 receive t;
#X obj 1195 370 makenote;
#X obj 290 433 print;
#X obj 791 890 table TimesBass 5;
#X msg 787 931 \; TimesBass 0 500 1000 2000 1000 500;
#X obj 236 44 hsl 128 15 150 300 0 0 empty empty empty -2 -8 0 10 -262144
-1 -1 6300 1;
#X obj 104 116 tgl 15 0 empty empty empty 17 7 0 10 -262144 -1 -1 0
1;
#X obj 67 274 bng 15 250 50 0 empty empty empty 17 7 0 10 -262144 -1
-1;
#X obj 631 7 inlet, f 6;
#X obj 339 540 bng 15 250 50 0 empty empty empty 17 7 0 10 -262144
-1 -1;
#X text 149 787 japan;
#X text 508 776 major;
#X text 911 770 dorian;
#X msg 275 368 set C;
#X obj 360 391 tabread C;
#X obj 1279 1005 table C 27;
#X msg 27 993 \; C 0 48 49 53 55 58 60 61 65 67 70 72 73 77 79 82 84
85 89 91 94 96 97 101 103 106 108;
#X msg 449 996 \; C 0 48 50 52 53 55 57 59 60 62 64 65 67 69 71 72
74 76 77 79 81 83 84 86 88 89 91 93 95 96;
#X msg 883 997 \; C 0 48 50 51 53 55 57 58 60 62 63 65 67 69 70 72
74 75 77 79 81 82 84 86 87 89 91 93 94;
#X obj 881 768 bng 15 250 50 0 empty empty empty 17 7 0 10 -262144
-1 -1;
#X obj 481 777 bng 15 250 50 0 empty empty empty 17 7 0 10 -262144
-1 -1;
#X obj 118 787 bng 15 250 50 0 empty empty empty 17 7 0 10 -262144
-1 -1;
#X obj 1274 1133 table CB 22;
#X obj 1191 281 tabread CB;
#X msg 1216 204 set CB 22;
#X msg 451 1127 \; CB 0 36 38 40 41 43 45 47 48 50 52 53 55 57 59 60
;
#X msg 19 1114 \; CB 0 36 37 41 43 46 48 49 53 55 58 60 61 65 67 70
;
#X text 539 1091 major bass;
#X text 133 1092 japan bass;
#X text 1059 1095 dorian bass;
#X msg 890 1126 \; CB 0 36 38 39 41 43 45 46 48 50 51 53 55 57 58 60
;
#X obj 1162 450 noteout;
#X obj 902 331 loadbang;
#X obj 1197 120 loadbang;
#X obj 1280 165 loadbang;
#X obj 270 337 loadbang;
#X floatatom 463 579 5 0 0 0 - - -, f 5;
#X floatatom 510 565 5 0 0 0 - - -, f 5;
#X obj 101 172 metro 150;
#X obj 666 525 pack f f f;
#X obj 666 561 route 1 2 3 4 5 6;
#X obj 665 796 dac~;
#N canvas 528 376 450 300 osc~synth 0;
#X obj 68 38 inlet;
#X obj 68 92 mtof;
#X obj 68 63 unpack;
#X obj 68 125 osc~;
#X obj 115 94 / 127;
#X obj 68 236 outlet~;
#X text 154 107 here would be an adsr envelope;
#X obj 68 198 *~ 0.2;
#X text 123 199 reduce the output level to prevent distortion;
#X obj 115 140 line~;
#X obj 68 161 *~;
#X msg 115 116 \$1 5;
#X connect 0 0 2 0;
#X connect 1 0 3 0;
#X connect 2 0 1 0;
#X connect 2 1 4 0;
#X connect 3 0 10 0;
#X connect 4 0 11 0;
#X connect 7 0 5 0;
#X connect 9 0 10 1;
#X connect 10 0 7 0;
#X connect 11 0 9 0;
#X restore 666 590 pd osc~synth;
#X obj 666 644 +~;
#X obj 666 671 +~;
#X obj 665 697 +~;
#X obj 665 724 +~;
#X obj 665 751 +~;
#X obj 667 491 poly 6 1;
#N canvas 709 217 450 300 osc~synth 0;
#X obj 68 38 inlet;
#X obj 68 92 mtof;
#X obj 68 63 unpack;
#X obj 68 125 osc~;
#X obj 115 94 / 127;
#X obj 68 236 outlet~;
#X text 154 107 here would be an adsr envelope;
#X obj 68 198 *~ 0.2;
#X text 123 199 reduce the output level to prevent distortion;
#X obj 115 140 line~;
#X obj 68 161 *~;
#X msg 115 116 \$1 5;
#X connect 0 0 2 0;
#X connect 1 0 3 0;
#X connect 2 0 1 0;
#X connect 2 1 4 0;
#X connect 3 0 10 0;
#X connect 4 0 11 0;
#X connect 7 0 5 0;
#X connect 9 0 10 1;
#X connect 10 0 7 0;
#X connect 11 0 9 0;
#X restore 680 613 pd osc~synth;
#N canvas 709 217 450 300 osc~synth 0;
#X obj 68 38 inlet;
#X obj 68 92 mtof;
#X obj 68 63 unpack;
#X obj 68 125 osc~;
#X obj 115 94 / 127;
#X obj 68 236 outlet~;
#X text 154 107 here would be an adsr envelope;
#X obj 68 198 *~ 0.2;
#X text 123 199 reduce the output level to prevent distortion;
#X obj 115 140 line~;
#X obj 68 161 *~;
#X msg 115 116 \$1 5;
#X connect 0 0 2 0;
#X connect 1 0 3 0;
#X connect 2 0 1 0;
#X connect 2 1 4 0;
#X connect 3 0 10 0;
#X connect 4 0 11 0;
#X connect 7 0 5 0;
#X connect 9 0 10 1;
#X connect 10 0 7 0;
#X connect 11 0 9 0;
#X restore 699 637 pd osc~synth;
#N canvas 709 307 450 300 osc~synth 0;
#X obj 68 38 inlet;
#X obj 68 92 mtof;
#X obj 68 63 unpack;
#X obj 68 125 osc~;
#X obj 115 94 / 127;
#X obj 68 236 outlet~;
#X text 154 107 here would be an adsr envelope;
#X obj 68 198 *~ 0.2;
#X text 123 199 reduce the output level to prevent distortion;
#X obj 115 140 line~;
#X obj 68 161 *~;
#X msg 115 116 \$1 5;
#X connect 0 0 2 0;
#X connect 1 0 3 0;
#X connect 2 0 1 0;
#X connect 2 1 4 0;
#X connect 3 0 10 0;
#X connect 4 0 11 0;
#X connect 7 0 5 0;
#X connect 9 0 10 1;
#X connect 10 0 7 0;
#X connect 11 0 9 0;
#X restore 748 708 pd osc~synth;
#X text 789 584 the synth would normally be an abstraction to make
updating easier;
#X text 742 490 poly acts as a voice allocator and keeps track of the
incoming midi note and velocity freeing up slots on the fly when note-off
(velocity 0) is received;
#N canvas 709 337 450 300 osc~synth 0;
#X obj 68 38 inlet;
#X obj 68 92 mtof;
#X obj 68 63 unpack;
#X obj 68 125 osc~;
#X obj 115 94 / 127;
#X obj 68 236 outlet~;
#X text 154 107 here would be an adsr envelope;
#X obj 68 198 *~ 0.2;
#X text 123 199 reduce the output level to prevent distortion;
#X obj 115 140 line~;
#X obj 68 161 *~;
#X msg 115 116 \$1 5;
#X connect 0 0 2 0;
#X connect 1 0 3 0;
#X connect 2 0 1 0;
#X connect 2 1 4 0;
#X connect 3 0 10 0;
#X connect 4 0 11 0;
#X connect 7 0 5 0;
#X connect 9 0 10 1;
#X connect 10 0 7 0;
#X connect 11 0 9 0;
#X restore 732 684 pd osc~synth;
#N canvas 709 337 450 300 osc~synth 0;
#X obj 68 38 inlet;
#X obj 68 92 mtof;
#X obj 68 63 unpack;
#X obj 68 125 osc~;
#X obj 115 94 / 127;
#X obj 68 236 outlet~;
#X text 154 107 here would be an adsr envelope;
#X obj 68 198 *~ 0.2;
#X text 123 199 reduce the output level to prevent distortion;
#X obj 115 140 line~;
#X obj 68 161 *~;
#X msg 115 116 \$1 5;
#X connect 0 0 2 0;
#X connect 1 0 3 0;
#X connect 2 0 1 0;
#X connect 2 1 4 0;
#X connect 3 0 10 0;
#X connect 4 0 11 0;
#X connect 7 0 5 0;
#X connect 9 0 10 1;
#X connect 10 0 7 0;
#X connect 11 0 9 0;
#X restore 717 664 pd osc~synth;
#X connect 0 0 32 0;
#X connect 0 0 1 0;
#X connect 0 0 59 0;
#X connect 0 0 71 0;
#X connect 0 1 1 1;
#X connect 0 1 60 0;
#X connect 0 1 71 1;
#X connect 3 0 61 1;
#X connect 8 0 10 0;
#X connect 9 0 37 0;
#X connect 10 0 0 1;
#X connect 10 0 19 0;
#X connect 13 0 0 2;
#X connect 13 0 20 0;
#X connect 14 0 13 0;
#X connect 15 0 13 0;
#X connect 16 0 21 0;
#X connect 17 0 21 0;
#X connect 21 0 46 0;
#X connect 22 0 24 1;
#X connect 23 0 24 2;
#X connect 24 0 54 0;
#X connect 24 1 54 1;
#X connect 28 0 3 0;
#X connect 29 0 61 0;
#X connect 31 0 28 0;
#X connect 36 0 37 0;
#X connect 37 0 25 0;
#X connect 37 0 0 0;
#X connect 42 0 41 0;
#X connect 42 0 12 0;
#X connect 42 0 27 0;
#X connect 42 0 53 0;
#X connect 43 0 40 0;
#X connect 43 0 12 0;
#X connect 43 0 48 0;
#X connect 43 0 27 0;
#X connect 44 0 39 0;
#X connect 44 0 12 0;
#X connect 44 0 49 0;
#X connect 44 0 27 0;
#X connect 46 0 24 0;
#X connect 47 0 46 0;
#X connect 55 0 15 0;
#X connect 56 0 17 0;
#X connect 57 0 47 0;
#X connect 58 0 36 0;
#X connect 61 0 9 0;
#X connect 61 0 8 0;
#X connect 61 0 14 0;
#X connect 61 0 18 0;
#X connect 61 0 30 0;
#X connect 62 0 63 0;
#X connect 63 0 65 0;
#X connect 63 1 72 0;
#X connect 63 2 73 0;
#X connect 63 3 78 0;
#X connect 63 4 77 0;
#X connect 63 5 74 0;
#X connect 65 0 66 0;
#X connect 66 0 67 0;
#X connect 67 0 68 0;
#X connect 68 0 69 0;
#X connect 69 0 70 0;
#X connect 70 0 64 0;
#X connect 70 0 64 1;
#X connect 71 0 62 0;
#X connect 71 1 62 1;
#X connect 71 2 62 2;
#X connect 72 0 66 1;
#X connect 73 0 67 1;
#X connect 74 0 70 1;
#X connect 77 0 69 1;
#X connect 78 0 68 1;
