#N canvas 735 422 450 300 10;
#X obj 380 116 dac~;
#X obj 72 -70 volume;
#X floatatom 359 -12 5 0 0 0 - - -, f 5;
#X floatatom 253 -59 5 0 0 0 - - -, f 5;
#X obj 272 47 osc~;
#X obj 209 115 *~;
#X connect 1 0 5 1;
#X connect 2 0 4 1;
#X connect 3 0 4 0;
#X connect 4 0 5 0;
#X connect 5 0 0 0;
#X connect 5 0 0 1;
