#N canvas 1293 226 450 300 10;
#X obj 186 285 hsl 128 15 0 127 0 0 empty empty empty -2 -8 0 10 -262144
-1 -1 0 1;
#X obj 208 356 mtof;
#X obj 196 189 shell;
#X floatatom 196 244 5 0 0 0 - - -, f 5;
#X obj 223 212 print ScriptExec;
#X obj 102 113 bng 15 250 50 0 empty empty empty 17 7 0 10 -262144
-1 -1;
#X text 229 241 % of CPU used;
#X msg 98 51 1;
#X obj 103 91 metro 600;
#X msg 196 146 sh /home/lxu/Documents/M1S1/Project1/shScript/GetCPU_Ubuntu.sh
;
#X msg 179 52 0;
#X obj 74 17 inlet;
#X connect 0 0 1 0;
#X connect 2 0 3 0;
#X connect 2 1 4 0;
#X connect 3 0 0 0;
#X connect 5 0 9 0;
#X connect 7 0 8 0;
#X connect 8 0 5 0;
#X connect 9 0 2 0;
#X connect 10 0 8 0;
#X connect 11 0 7 0;
