#N canvas 188 57 997 368 10;
#X obj 9 51 outlet~;
#X text 118 40 outlet audio~;
#X obj 8 7 inlet;
#X text 112 26 inlets trigger \, control \, add \, multiply;
#N canvas 144 40 719 674 workings 0;
#X obj 227 30 vline~;
#X obj 227 51 *~;
#X obj 163 92 +~ 140;
#X obj 206 92 +~ 275;
#X obj 248 92 +~ 455;
#X obj 389 119 *~;
#X obj 367 -31 t b b;
#X obj 443 35 vline~;
#X obj 443 56 *~;
#X obj 456 81 *~;
#X msg 442 13 1 0 0 \, 0 50 1;
#X obj 391 89 lop~ 1200;
#X obj 290 92 +~ 645;
#X obj 332 92 +~ 1155;
#X msg 226 8 6 1 0 \, 0 100 1;
#X obj 292 326 *~ 0.7;
#X obj 317 490 outlet~;
#X obj 346 -125 inlet bang;
#X obj 541 151 switch~;
#X msg 536 86 1;
#X msg 567 86 0;
#X obj 626 82 sel 0;
#X obj 347 -67 t b b b;
#N canvas 0 22 729 537 noise 0;
#X obj 260 259 +~;
#X obj 261 281 wrap~;
#X obj 260 342 -~ 0.5;
#X obj 260 322 wrap~;
#X msg 327 146 0;
#X obj 258 166 phasor~ 0.01;
#X obj 259 187 *~ 10000;
#X obj 292 217 *~ 6789;
#X obj 261 302 *~ 98765;
#X obj 260 399 outlet~;
#X obj 329 122 inlet;
#X obj 261 364 *~ 2;
#X connect 0 0 1 0;
#X connect 1 0 8 0;
#X connect 2 0 11 0;
#X connect 3 0 2 0;
#X connect 4 0 5 1;
#X connect 5 0 6 0;
#X connect 6 0 0 0;
#X connect 6 0 7 0;
#X connect 7 0 0 1;
#X connect 8 0 3 0;
#X connect 10 0 4 0;
#X connect 11 0 9 0;
#X restore 348 22 pd noise;
#X obj 351 44 *~ 9.99999e+06;
#X obj 345 67 clip~ -0.5 0.5;
#X obj 308 354 *~;
#X msg 391 315 1 5;
#X obj 391 338 vline~;
#X msg 626 25 1 0 \, 0 150;
#X obj 625 47 line 1 150;
#X obj 627 105 del 5;
#X msg 596 194 0 4;
#X obj 72 -136 r \$0-pitch;
#X obj 72 -113 + 0.5;
#X obj 398 372 r \$0-gain;
#N canvas 0 22 462 312 rh_scalelog 0;
#X obj 20 155 exp;
#X obj 20 107 *;
#X obj 20 130 +;
#X obj 98 87 log;
#X obj 194 84 log;
#X obj 123 123 t b f;
#X obj 123 145 -;
#X obj 20 183 outlet;
#X obj 20 19 inlet;
#X obj 98 23 inlet;
#X obj 194 24 inlet;
#X connect 0 0 7 0;
#X connect 1 0 2 0;
#X connect 2 0 0 0;
#X connect 3 0 2 1;
#X connect 3 0 5 0;
#X connect 4 0 6 0;
#X connect 5 0 6 0;
#X connect 5 1 6 1;
#X connect 6 0 1 1;
#X connect 8 0 1 0;
#X connect 9 0 3 0;
#X connect 10 0 4 0;
#X restore 398 442 pd rh_scalelog;
#X msg 445 418 0.1;
#X msg 491 418 10;
#X obj 319 451 *~;
#X obj 12 -33 * 190;
#X obj 53 -27 * 360;
#X obj 91 -17 * 590;
#X obj 133 -4 * 825;
#X obj 182 2 * 1470;
#X obj 198 188 vcf~ 90;
#X obj 265 189 vcf~ 55;
#X obj 327 189 vcf~ 40;
#X obj 375 189 vcf~ 35;
#X obj 423 189 vcf~ 30;
#X obj 212 270 *~ 200;
#X obj 257 270 *~ 30;
#X obj 296 270 *~ 20;
#X obj 348 272 *~ 8;
#X obj 394 269 *~ 3;
#X obj 445 390 r \$0-loadbang;
#X connect 0 0 1 0;
#X connect 0 0 1 1;
#X connect 1 0 2 0;
#X connect 1 0 3 0;
#X connect 1 0 4 0;
#X connect 1 0 12 0;
#X connect 1 0 13 0;
#X connect 2 0 45 1;
#X connect 3 0 46 1;
#X connect 4 0 47 1;
#X connect 5 0 45 0;
#X connect 5 0 46 0;
#X connect 5 0 47 0;
#X connect 5 0 48 0;
#X connect 5 0 49 0;
#X connect 6 0 10 0;
#X connect 6 1 14 0;
#X connect 7 0 8 0;
#X connect 7 0 8 1;
#X connect 8 0 9 0;
#X connect 8 0 9 1;
#X connect 9 0 5 0;
#X connect 10 0 7 0;
#X connect 11 0 5 1;
#X connect 12 0 48 1;
#X connect 13 0 49 1;
#X connect 14 0 0 0;
#X connect 15 0 26 0;
#X connect 17 0 22 0;
#X connect 19 0 18 0;
#X connect 20 0 18 0;
#X connect 21 0 31 0;
#X connect 21 0 32 0;
#X connect 22 0 29 0;
#X connect 22 0 23 0;
#X connect 22 0 27 0;
#X connect 22 1 6 0;
#X connect 22 2 19 0;
#X connect 23 0 24 0;
#X connect 24 0 25 0;
#X connect 25 0 11 0;
#X connect 26 0 39 0;
#X connect 27 0 28 0;
#X connect 28 0 26 1;
#X connect 29 0 30 0;
#X connect 30 0 21 0;
#X connect 31 0 20 0;
#X connect 32 0 28 0;
#X connect 33 0 34 0;
#X connect 34 0 40 0;
#X connect 34 0 41 0;
#X connect 34 0 42 0;
#X connect 34 0 43 0;
#X connect 34 0 44 0;
#X connect 35 0 36 0;
#X connect 36 0 39 1;
#X connect 37 0 36 1;
#X connect 38 0 36 2;
#X connect 39 0 16 0;
#X connect 40 0 2 1;
#X connect 41 0 3 1;
#X connect 42 0 4 1;
#X connect 43 0 12 1;
#X connect 44 0 13 1;
#X connect 45 0 50 0;
#X connect 46 0 51 0;
#X connect 47 0 52 0;
#X connect 48 0 53 0;
#X connect 49 0 54 0;
#X connect 50 0 15 0;
#X connect 51 0 15 0;
#X connect 52 0 15 0;
#X connect 53 0 15 0;
#X connect 54 0 15 0;
#X connect 55 0 37 0;
#X connect 55 0 38 0;
#X restore 8 29 pd workings;
#X connect 2 0 4 0;
#X connect 4 0 0 0;
#X coords 0 0 1 1 180 44 0;
