#N canvas 27 584 450 300 10;
#X obj 251 75 delay 100;
#X obj 217 128 +~;
#X obj 117 75 delay 100;
#X obj 137 131 +~;
#X obj 196 181 +~;
#X obj 127 20 inlet;
#X obj 251 30 inlet;
#X obj 195 236 outlet~;
#X floatatom 353 87 5 0 0 0 - - -, f 5;
#X floatatom 189 48 5 0 0 0 - - -, f 5;
#X obj 217 102 akick2;
#X obj 263 102 akick3;
#X obj 99 99 akick3;
#X obj 152 101 bkick2;
#X connect 0 0 10 0;
#X connect 1 0 4 1;
#X connect 2 0 12 0;
#X connect 3 0 4 0;
#X connect 4 0 7 0;
#X connect 5 0 2 0;
#X connect 5 0 13 0;
#X connect 6 0 0 0;
#X connect 6 0 11 0;
#X connect 10 0 1 0;
#X connect 11 0 1 1;
#X connect 12 0 3 0;
#X connect 13 0 3 1;
