#N canvas 219 50 916 674 10;
#X obj 77 195 getdir;
#X msg 76 175 bang;
#X symbolatom 305 163 20 0 0 2 save-as: #0-saveas-r #0-saveas;
#X obj 307 519 textfile;
#X obj 308 642 s SSSAD;
#X obj 307 461 until;
#X msg 251 467 print;
#X obj 375 546 s SSSAD_ADMIN;
#X msg 375 521 set;
#X obj 307 417 t b a;
#X msg 354 463 read \$1 \, rewind;
#X obj 295 546 list split 1;
#X obj 309 603 list;
#X obj 294 572 makefilename \$1%s;
#X obj 376 499 t b b;
#X obj 685 560 textfile;
#X msg 574 461 clear;
#X msg 759 543 print;
#X obj 685 507 list prepend add;
#X obj 685 527 list trim;
#X obj 552 561 s SSSAD_ADMIN;
#X obj 683 414 r SSSAD_ADMIN;
#X obj 683 458 route persist;
#X obj 683 436 list trim;
#X msg 552 495 save;
#X msg 566 534 set;
#X obj 530 425 t a b b;
#X msg 530 608 write \$1;
#X obj 557 249 symbol;
#X obj 683 482 OSCroute \$1;
#X obj 531 334 getdir;
#X obj 529 378 list2symbol /;
#X obj 531 302 t b a;
#X obj 530 357 pack s s s;
#X msg 530 400 symbol \$1.txt;
#X obj 430 162 bng 15 250 50 0 empty empty empty 0 -6 0 10 -262144
-1 -1;
#X obj 558 199 r \$0-saveas;
#X obj 502 279 t b a;
#X symbolatom 305 133 20 0 0 2 LOAD: #0-load-r #0-load;
#X obj 96 316 folder_list;
#N canvas 375 52 746 675 list-seek 0;
#X obj 73 79 inlet;
#X obj 300 74 inlet;
#X obj 135 501 outlet;
#X text 349 72 list to manipulate;
#X text 134 522 output value;
#X obj 135 416 list;
#X obj 135 391 t b a;
#X obj 300 103 t b a a;
#X text 31 23 bang for next item \, float for index or set for no-output.
;
#N canvas 468 204 474 324 list-len 0;
#X obj 126 70 inlet;
#X obj 161 209 + 1;
#X obj 82 172 b;
#X obj 116 249 f;
#X obj 116 276 outlet;
#X obj 148 183 1;
#X obj 132 211 f 1;
#X obj 206 213 0;
#X obj 126 104 t a b b;
#N canvas 0 22 561 435 drip 0;
#X obj 64 206 list split 1;
#X obj 64 123 until;
#X obj 64 181 list append;
#X obj 194 206 bang;
#X text 146 90 First store list \, then start the loop;
#X text 163 118 "until" bangs its output until told to stop by a "bang"
to its right inlet.;
#X text 182 160 Store the remaining list.;
#X text 239 205 third outlet of "split" tells us to stop.;
#X obj 64 243 outlet;
#X obj 64 57 inlet;
#X text 237 44 From list-help.pd;
#X obj 143 274 outlet;
#X obj 64 86 t b a;
#X obj 139 234 t b b;
#X connect 0 0 8 0;
#X connect 0 1 2 1;
#X connect 0 2 13 0;
#X connect 1 0 2 0;
#X connect 2 0 0 0;
#X connect 3 0 1 1;
#X connect 9 0 12 0;
#X connect 12 0 1 0;
#X connect 12 1 2 1;
#X connect 13 0 11 0;
#X connect 13 1 3 0;
#X restore 82 149 pd drip;
#X connect 0 0 8 0;
#X connect 1 0 6 1;
#X connect 2 0 6 0;
#X connect 3 0 4 0;
#X connect 5 0 6 1;
#X connect 6 0 1 0;
#X connect 6 0 3 1;
#X connect 7 0 3 1;
#X connect 8 0 9 0;
#X connect 8 1 5 0;
#X connect 8 2 7 0;
#X connect 9 0 2 0;
#X connect 9 1 3 0;
#X restore 164 266 pd list-len;
#N canvas 0 22 478 328 list-idx 0;
#X obj 122 108 inlet;
#X obj 174 204 outlet;
#X obj 187 47 inlet;
#X obj 174 170 list split 1;
#X obj 145 145 list split;
#X connect 0 0 4 0;
#X connect 2 0 4 1;
#X connect 3 0 1 0;
#X connect 4 1 3 0;
#X restore 135 440 pd list-idx;
#X obj 135 317 mod 2;
#X obj 109 141 +;
#X obj 137 141 f;
#X connect 0 0 12 0;
#X connect 1 0 7 0;
#X connect 5 0 10 0;
#X connect 6 0 5 0;
#X connect 6 1 10 1;
#X connect 7 1 9 0;
#X connect 7 2 5 1;
#X connect 9 0 11 1;
#X connect 10 0 2 0;
#X connect 11 0 6 0;
#X connect 12 0 13 0;
#X connect 12 0 11 0;
#X connect 13 0 12 1;
#X restore 35 423 pd list-seek;
#X obj 142 335 list;
#X obj 97 360 list prepend;
#X obj 78 285 t b a b;
#N canvas 468 204 478 328 list-len 0;
#X obj 126 70 inlet;
#X obj 161 209 + 1;
#X obj 82 172 b;
#X obj 116 249 f;
#X obj 116 276 outlet;
#X obj 148 183 1;
#X obj 132 211 f 1;
#X obj 206 213 0;
#X obj 126 104 t a b b;
#N canvas 0 22 561 435 drip 0;
#X obj 64 206 list split 1;
#X obj 64 123 until;
#X obj 64 181 list append;
#X obj 194 206 bang;
#X text 146 90 First store list \, then start the loop;
#X text 163 118 "until" bangs its output until told to stop by a "bang"
to its right inlet.;
#X text 182 160 Store the remaining list.;
#X text 239 205 third outlet of "split" tells us to stop.;
#X obj 64 243 outlet;
#X obj 64 57 inlet;
#X text 237 44 From list-help.pd;
#X obj 143 274 outlet;
#X obj 64 86 t b a;
#X obj 139 234 t b b;
#X connect 0 0 8 0;
#X connect 0 1 2 1;
#X connect 0 2 13 0;
#X connect 1 0 2 0;
#X connect 2 0 0 0;
#X connect 3 0 1 1;
#X connect 9 0 12 0;
#X connect 12 0 1 0;
#X connect 12 1 2 1;
#X connect 13 0 11 0;
#X connect 13 1 3 0;
#X restore 82 149 pd drip;
#X connect 0 0 8 0;
#X connect 1 0 6 1;
#X connect 2 0 6 0;
#X connect 3 0 4 0;
#X connect 5 0 6 1;
#X connect 6 0 1 0;
#X connect 6 0 3 1;
#X connect 7 0 3 1;
#X connect 8 0 9 0;
#X connect 8 1 5 0;
#X connect 8 2 7 0;
#X connect 9 0 2 0;
#X connect 9 1 3 0;
#X restore 91 501 pd list-len;
#X obj 35 447 symbol2list /;
#X obj 34 542 list split;
#X obj 92 522 - 1;
#X obj 36 470 t a a;
#X obj 63 563 symbol2list .;
#X msg 64 583 set \$1;
#X obj 65 606 s \$0-load-r;
#X obj 494 150 s \$0-load-r;
#X obj 308 272 r \$0-load;
#X obj 308 327 getdir;
#X obj 306 371 list2symbol /;
#X obj 308 295 t b a;
#X obj 307 350 pack s s s;
#X msg 307 393 symbol \$1.txt;
#X obj 409 119 bng 12 250 50 0 empty empty go 15 6 0 10 -258113 -1
-1;
#X obj 591 223 r \$0-load;
#X obj 383 119 bng 12 250 50 0 empty empty empty 0 -6 0 10 -262144
-1 -1;
#X obj 395 119 bng 12 250 50 0 empty empty empty 0 -6 0 10 -262144
-1 -1;
#X msg 369 197 -1;
#X msg 398 197 1;
#X obj 370 230 t a;
#X text 385 115 -;
#X text 397 115 +;
#X obj 704 209 r \$0-load;
#X msg 698 233 set \$1;
#X obj 691 256 s \$0-saveas-r;
#X msg 78 226 symbol \$1/settings/*;
#X obj 577 326 symbol settings;
#X obj 354 319 symbol settings;
#X obj 77 109 loadbang;
#X obj 575 306 loadbang;
#X obj 352 299 loadbang;
#X msg 257 188 0;
#X obj 79 142 t b b;
#X connect 0 0 71 0;
#X connect 1 0 0 0;
#X connect 3 0 11 0;
#X connect 3 1 14 0;
#X connect 5 0 3 0;
#X connect 6 0 3 0;
#X connect 8 0 7 0;
#X connect 9 0 5 0;
#X connect 9 1 10 0;
#X connect 10 0 3 0;
#X connect 11 0 13 0;
#X connect 11 1 12 1;
#X connect 12 0 4 0;
#X connect 13 0 12 0;
#X connect 14 0 8 0;
#X connect 14 1 5 1;
#X connect 16 0 15 0;
#X connect 17 0 15 0;
#X connect 18 0 19 0;
#X connect 19 0 15 0;
#X connect 21 0 23 0;
#X connect 22 0 29 0;
#X connect 23 0 22 0;
#X connect 24 0 20 0;
#X connect 25 0 20 0;
#X connect 26 0 27 0;
#X connect 26 1 24 0;
#X connect 26 2 16 0;
#X connect 27 0 15 0;
#X connect 28 0 37 0;
#X connect 29 0 18 0;
#X connect 30 0 33 0;
#X connect 31 0 34 0;
#X connect 32 0 30 0;
#X connect 32 1 33 2;
#X connect 33 0 31 0;
#X connect 34 0 26 0;
#X connect 35 0 28 0;
#X connect 36 0 28 0;
#X connect 37 0 1 0;
#X connect 37 1 32 0;
#X connect 39 0 42 0;
#X connect 40 0 45 0;
#X connect 41 0 42 1;
#X connect 42 0 41 0;
#X connect 42 0 40 1;
#X connect 43 1 39 0;
#X connect 43 2 42 1;
#X connect 44 0 47 0;
#X connect 45 0 48 0;
#X connect 46 1 49 0;
#X connect 47 0 46 1;
#X connect 48 0 46 0;
#X connect 48 1 44 0;
#X connect 49 0 50 0;
#X connect 50 0 51 0;
#X connect 53 0 56 0;
#X connect 54 0 57 0;
#X connect 55 0 58 0;
#X connect 56 0 54 0;
#X connect 56 1 57 2;
#X connect 57 0 55 0;
#X connect 58 0 9 0;
#X connect 59 0 52 0;
#X connect 60 0 28 1;
#X connect 61 0 63 0;
#X connect 62 0 64 0;
#X connect 63 0 65 0;
#X connect 64 0 65 0;
#X connect 65 0 40 0;
#X connect 68 0 69 0;
#X connect 69 0 70 0;
#X connect 71 0 43 0;
#X connect 72 0 33 1;
#X connect 73 0 57 1;
#X connect 74 0 78 0;
#X connect 75 0 72 0;
#X connect 76 0 73 0;
#X connect 77 0 65 0;
#X connect 78 0 77 0;
#X connect 78 1 1 0;
#X coords 0 -1 1 1 160 80 1 300 100;
