#N canvas 133 77 1115 551 10;
#X obj -29 37 bng 50 250 50 0 empty \$0-hitbd empty 0 -6 0 10 -262144
-1 -1;
#X obj 702 82 bng 50 250 50 0 empty \$0-hitandyhat empty 0 -6 0 10
-262144 -1 -1;
#X obj 153 39 bng 50 250 50 0 empty \$0-hithat empty 0 -6 0 10 -262144
-1 -1;
#X obj 340 62 bng 50 250 50 0 empty \$0-hitsnare empty 0 -6 0 10 -262144
-1 -1;
#X obj 349 283 bng 50 250 50 0 empty \$0-hitgun empty 0 -6 0 10 -262144
-1 -1;
#X obj 163 285 bng 50 250 50 0 empty \$0-hithi empty 0 -6 0 10 -262144
-1 -1;
#X obj -20 287 bng 50 250 50 0 empty \$0-hitlow empty 0 -6 0 10 -262144
-1 -1;
#X obj 520 82 bng 50 250 50 0 empty \$0-hitclap empty 0 -6 0 10 -262144
-1 -1;
#X obj 184 499 dac~;
#X obj 182 469 +~;
#X obj -28 210 throw~ \$0-drums;
#X obj 156 257 throw~ \$0-drums;
#X obj 338 255 throw~ \$0-drums;
#X obj 520 255 throw~ \$0-drums;
#X obj 704 254 throw~ \$0-drums;
#X obj 349 386 throw~ \$0-drums;
#X obj 163 389 throw~ \$0-drums;
#X obj -19 390 throw~ \$0-drums;
#X obj 181 446 catch~ \$0-drums;
#N canvas 0 22 1263 533 generative-sequence(dodgy) 0;
#X obj 280 223 sel 0;
#X obj 283 47 r \$0-metro;
#X msg 280 246 0;
#X obj 279 267 s \$0-playdrums;
#X obj 413 153 mod 4;
#X obj 401 43 r \$0-metro;
#X obj 444 287 s \$0-playdrums;
#X msg 443 260 1;
#X obj 700 311 r \$0-metro;
#X obj 704 417 s \$0-playdrums;
#X obj 702 332 sel 0;
#X msg 705 396 10;
#X obj 549 165 r \$0-metro;
#X obj 559 289 s \$0-playdrums;
#X msg 560 268 2;
#X obj 643 124 r \$0-metro;
#X obj 656 228 s \$0-playdrums;
#X msg 657 207 3;
#X obj 772 193 r \$0-metro;
#X obj 782 263 s \$0-playdrums;
#X obj 774 214 sel 10 14;
#X msg 776 237 7;
#X msg 800 236 6;
#X obj 705 354 random 4;
#X obj 707 374 sel 0;
#X obj 645 144 sel 8 10 12;
#X obj 670 186 sel 0;
#X obj 668 166 random 3;
#X obj 444 240 sel 0;
#X obj 416 173 sel 2;
#X obj 453 198 t b;
#X obj 449 219 random 3;
#X obj 284 69 moses 4;
#X obj 295 197 spigot;
#X obj 336 155 random 3;
#X obj 331 176 != 0;
#X obj 337 133 sel 4;
#X obj 324 90 t f f;
#X obj 297 132 mod 4;
#X obj 458 173 spigot;
#X obj 486 126 sel 0;
#X obj 403 64 t f f;
#X obj 486 147 random 2;
#X obj 887 195 r \$0-metro;
#X obj 896 353 s \$0-playdrums;
#X obj 890 219 sel 10 12;
#X msg 892 247 bang;
#X obj 894 270 random 4;
#X obj 898 292 sel 0 1 2 3;
#X msg 889 313 4;
#X msg 916 314 5;
#X msg 945 313 8;
#X msg 972 311 9;
#X obj 998 200 s \$0-hitbd;
#X obj 1010 222 s \$0-hithat;
#X obj 1024 244 s \$0-hitsnare;
#X obj 1041 267 s \$0-hitclap;
#X obj 1055 288 s \$0-hitandyhat;
#X obj 1068 308 s \$0-hitcow;
#X obj 1077 328 s \$0-hitlow;
#X obj 1084 348 s \$0-hithi;
#X obj 1092 371 s \$0-hitgun;
#X obj 1097 393 s \$0-hitbell;
#X obj 1106 412 s \$0-hitcymbal;
#X obj 998 173 sel 0 1 2 3 4 5 6 7 8 9 10;
#X obj 998 152 r \$0-playdrums;
#X obj 574 236 sel 0;
#X obj 572 216 random 3;
#X obj 551 187 sel 4 12 10;
#X floatatom 150 159 5 20 100000 1 1-beat - -;
#X floatatom 149 121 5 18 1000 1 BPM - -;
#X obj 120 218 metro;
#X obj 104 129 tgl 40 0 empty empty PLAY 0 -6 0 10 -262144 -1 -1 1
1;
#X obj 121 262 f;
#X obj 148 263 + 1;
#X obj 173 264 mod 16;
#X obj 75 238 sel 0;
#X msg 76 259 0;
#X obj 121 285 s \$0-metro;
#X obj 150 181 max 20;
#X obj 153 60 loadbang;
#X obj 392 210 t b b;
#X obj 425 317 random 10;
#X obj 426 389 s \$0-openclose;
#X obj 425 341 / 20;
#X obj 423 365 + 0.3;
#X obj 160 139 expr 15000/$f1;
#X msg 151 79 167;
#X connect 0 0 2 0;
#X connect 1 0 32 0;
#X connect 2 0 3 0;
#X connect 4 0 29 0;
#X connect 5 0 41 0;
#X connect 7 0 6 0;
#X connect 8 0 10 0;
#X connect 10 0 23 0;
#X connect 11 0 9 0;
#X connect 12 0 68 0;
#X connect 14 0 13 0;
#X connect 15 0 25 0;
#X connect 17 0 16 0;
#X connect 18 0 20 0;
#X connect 20 0 21 0;
#X connect 20 1 22 0;
#X connect 21 0 19 0;
#X connect 22 0 19 0;
#X connect 23 0 24 0;
#X connect 24 0 11 0;
#X connect 25 0 17 0;
#X connect 25 1 27 0;
#X connect 25 2 27 0;
#X connect 26 0 17 0;
#X connect 27 0 26 0;
#X connect 28 0 7 0;
#X connect 29 0 81 0;
#X connect 29 1 39 0;
#X connect 30 0 31 0;
#X connect 31 0 28 0;
#X connect 32 0 0 0;
#X connect 32 1 37 0;
#X connect 33 0 0 0;
#X connect 34 0 35 0;
#X connect 35 0 33 1;
#X connect 36 0 34 0;
#X connect 37 0 38 0;
#X connect 37 1 36 0;
#X connect 38 0 33 0;
#X connect 39 0 30 0;
#X connect 40 0 42 0;
#X connect 41 0 4 0;
#X connect 41 1 40 0;
#X connect 42 0 39 1;
#X connect 43 0 45 0;
#X connect 45 0 46 0;
#X connect 45 1 46 0;
#X connect 46 0 47 0;
#X connect 47 0 48 0;
#X connect 48 0 49 0;
#X connect 48 1 50 0;
#X connect 48 2 51 0;
#X connect 48 3 52 0;
#X connect 49 0 44 0;
#X connect 50 0 44 0;
#X connect 51 0 44 0;
#X connect 52 0 44 0;
#X connect 64 0 53 0;
#X connect 64 1 54 0;
#X connect 64 2 55 0;
#X connect 64 3 56 0;
#X connect 64 4 57 0;
#X connect 64 5 58 0;
#X connect 64 6 59 0;
#X connect 64 7 60 0;
#X connect 64 8 61 0;
#X connect 64 9 62 0;
#X connect 64 10 63 0;
#X connect 65 0 64 0;
#X connect 66 0 14 0;
#X connect 67 0 66 0;
#X connect 68 0 14 0;
#X connect 68 1 14 0;
#X connect 68 2 67 0;
#X connect 69 0 79 0;
#X connect 70 0 86 0;
#X connect 71 0 73 0;
#X connect 72 0 71 0;
#X connect 72 0 76 0;
#X connect 73 0 74 0;
#X connect 73 0 78 0;
#X connect 74 0 75 0;
#X connect 75 0 73 1;
#X connect 76 0 77 0;
#X connect 77 0 73 1;
#X connect 79 0 71 1;
#X connect 80 0 87 0;
#X connect 81 0 7 0;
#X connect 81 1 82 0;
#X connect 82 0 84 0;
#X connect 84 0 85 0;
#X connect 85 0 83 0;
#X connect 86 0 69 0;
#X connect 87 0 70 0;
#X coords 0 -1 1 1 150 80 1 100 100;
#X restore -9 416 pd generative-sequence(dodgy);
#X msg 259 27 7 \$1;
#X obj 259 5 r \$0-openclose;
#X obj -30 91 perk-bassdrum /perk/bd;
#X obj 156 94 perk-hihat /perk/hh;
#X obj 337 118 perk-snare /perk/sn;
#X obj 520 137 perk-clap /perk/cl;
#X obj 706 137 perk-andyHat /perk/ah;
#X obj 350 338 perk-gunshot /perk/gs;
#X obj 165 342 perk-hightom /perk/ht;
#X obj -20 342 perk-lowtom /perk/lt;
#X obj 899 428 diy-preset /perk;
#X obj 535 278 bng 50 250 50 0 empty \$0-hitbell empty 0 -6 0 10 -262144
-1 -1;
#X obj 534 400 throw~ \$0-drums;
#X obj 533 332 perk-bell /perk/bl;
#X obj 886 104 bng 50 250 50 0 empty \$0-hitcow empty 0 -6 0 10 -262144
-1 -1;
#X obj 888 252 throw~ \$0-drums;
#X obj 886 159 perk-cowbell /perk/cb;
#X obj 722 274 bng 50 250 50 0 empty \$0-hitcymbal empty 0 -6 0 10
-262144 -1 -1;
#X obj 723 435 throw~ \$0-drums;
#X obj 724 334 perk-cymbal2 /perk/cy;
#X text 599 492 type your save name and press enter to save it;
#X text 882 490 ->;
#X text 300 29 <- messages to the 2nd inlet will change slider values
;
#X msg 999 31 \; pd dsp 1;
#X obj 998 7 loadbang;
#X obj 315 435 cnv 15 260 90 empty empty empty 20 12 0 14 -203904 -66577
0;
#X text 316 460 thanks to:;
#X text 318 473 Frank Barknecht for sssad;
#X text 316 490 Andy Farnell for the fm hihat and gunshot;
#X text 317 441 Copywrong 2008 hard.off@gmail.com;
#X text 317 506 Stefan Ichabod for the toms and cymbal;
#X connect 0 0 22 0;
#X connect 1 0 26 0;
#X connect 2 0 23 0;
#X connect 3 0 24 0;
#X connect 4 0 27 0;
#X connect 5 0 28 0;
#X connect 6 0 29 0;
#X connect 7 0 25 0;
#X connect 9 0 8 0;
#X connect 9 0 8 1;
#X connect 18 0 9 0;
#X connect 20 0 23 1;
#X connect 21 0 20 0;
#X connect 22 0 10 0;
#X connect 23 0 11 0;
#X connect 24 0 12 0;
#X connect 25 0 13 0;
#X connect 26 0 14 0;
#X connect 27 0 15 0;
#X connect 28 0 16 0;
#X connect 29 0 17 0;
#X connect 31 0 33 0;
#X connect 33 0 32 0;
#X connect 34 0 36 0;
#X connect 36 0 35 0;
#X connect 37 0 39 0;
#X connect 39 0 38 0;
#X connect 44 0 43 0;
#X coords 0 0 1 1 180 112 0;
